<?xml version="1.0" encoding="utf-8"?>
<!-- Generator: Adobe Illustrator 25.2.0, SVG Export Plug-In . SVG Version: 6.00 Build 0)  -->
<svg version="1.1" id="Calque_1" xmlns="http://www.w3.org/2000/svg" xmlns:xlink="http://www.w3.org/1999/xlink" x="0px" y="0px"
	 viewBox="0 0 296.59 421.5" style="enable-background:new 0 0 296.59 421.5;" xml:space="preserve">
<style type="text/css">
	.st0{fill:#6DC5CB;}
	.st1{fill:#F6B1B5;}
	.st2{fill:#0097DA;}
	.st3{clip-path:url(#SVGID_2_);}
	.st4{fill:none;stroke:#0097DA;stroke-width:2.0892;stroke-miterlimit:10;}
	.st5{fill:none;stroke:#0097DA;stroke-width:3.1338;stroke-miterlimit:10;}
	.st6{fill:none;stroke:#352E39;stroke-width:4.1784;stroke-linecap:round;stroke-miterlimit:10;}
	.st7{fill:none;stroke:#352E39;stroke-width:4.1784;stroke-linecap:round;stroke-miterlimit:10;stroke-dasharray:0,11.4843;}
	.st8{fill:none;stroke:#352E39;stroke-width:5.223;stroke-linecap:round;stroke-miterlimit:10;}
	.st9{fill:none;stroke:#352E39;stroke-width:5.223;stroke-linecap:round;stroke-miterlimit:10;stroke-dasharray:0,10.5198;}
	.st10{fill:none;stroke:#F6B1B5;stroke-width:4.1784;stroke-linecap:round;stroke-miterlimit:10;}
	.st11{fill:none;stroke:#FFFFFF;stroke-width:2.0892;stroke-miterlimit:10;}
	.st12{fill:none;stroke:#EEBC2E;stroke-width:3.1338;stroke-miterlimit:10;}
	.st13{fill:none;stroke:#FFFFFF;stroke-width:3.1338;stroke-miterlimit:10;}
	.st14{fill:none;stroke:#F6B1B5;stroke-width:4.1784;stroke-miterlimit:10;}
	.st15{fill:none;stroke:#FFFFFF;stroke-width:3.1338;stroke-linejoin:round;stroke-miterlimit:10;}
	.st16{fill:none;stroke:#FFFFFF;stroke-width:4.1784;stroke-miterlimit:10;}
	.st17{fill:#EEBC2E;}
	.st18{fill:#FFFFFF;}
	.st19{fill:#C8BE9D;}
	.st20{fill:#F1893D;}
	.st21{clip-path:url(#SVGID_4_);}
	.st22{fill:none;stroke:#F1893D;stroke-width:6.2676;stroke-linecap:round;stroke-miterlimit:10;}
	.st23{fill:none;stroke:#F1893D;stroke-width:6.2676;stroke-linecap:round;stroke-miterlimit:10;stroke-dasharray:0,10.4299;}
	.st24{fill:none;stroke:#EEBC2E;stroke-width:5.0087;stroke-miterlimit:10;}
	.st25{fill:none;stroke:#FFFFFF;stroke-width:5.1631;stroke-miterlimit:10;}
	.st26{fill:none;stroke:#0097DA;stroke-width:4.3899;stroke-linecap:round;stroke-miterlimit:10;}
	.st27{fill:none;stroke:#0097DA;stroke-width:4.3899;stroke-linecap:round;stroke-miterlimit:10;stroke-dasharray:0,12.7054;}
	.st28{fill:none;stroke:#FFFFFF;stroke-width:4.2271;stroke-miterlimit:10;}
	.st29{fill:none;stroke:#352E39;stroke-width:3.1338;stroke-miterlimit:10;}
	.st30{fill:none;stroke:#352E39;stroke-width:2.6115;stroke-miterlimit:10;}
	.st31{fill:none;stroke:#35313B;stroke-width:4.1784;stroke-miterlimit:10;}
	.st32{fill:none;stroke:#352E39;stroke-width:4.1784;stroke-miterlimit:10;}
	.st33{fill:none;stroke:#00A9B9;stroke-width:4.1784;stroke-linecap:round;stroke-miterlimit:10;}
	.st34{fill:none;stroke:#00A9B9;stroke-width:2;stroke-miterlimit:10;}
	.st35{fill:#C1E5F8;}
	.st36{fill:#00A9B9;}
	.st37{clip-path:url(#SVGID_6_);}
	.st38{fill:none;stroke:#F6B1B5;stroke-width:2.6115;stroke-miterlimit:10;}
	.st39{fill:none;stroke:#FFFFFF;stroke-width:4.7007;stroke-linecap:round;stroke-miterlimit:10;}
	.st40{fill:none;stroke:#FFFFFF;stroke-width:4.7007;stroke-linecap:round;stroke-miterlimit:10;stroke-dasharray:0,10.3315;}
	.st41{fill:none;stroke:#35313B;stroke-width:3.1338;stroke-linejoin:round;stroke-miterlimit:10;}
	.st42{fill:none;stroke:#0097DA;stroke-width:4.1784;stroke-linecap:round;stroke-miterlimit:10;}
	.st43{fill:#352E39;}
	.st44{fill:none;stroke:#00A9B9;stroke-width:4.1784;stroke-miterlimit:10;}
	.st45{fill:none;stroke:#F1893D;stroke-width:4.2271;stroke-miterlimit:10;}
	.st46{fill:none;stroke:#35313B;stroke-width:3.1338;stroke-miterlimit:10;}
	.st47{fill:none;stroke:#F1893D;stroke-width:3.1338;stroke-miterlimit:10;}
	.st48{fill:none;stroke:#EEBC2E;stroke-width:5;stroke-linecap:round;stroke-miterlimit:10;}
	.st49{fill:none;stroke:#EEBC2E;stroke-width:5;stroke-linecap:round;stroke-miterlimit:10;stroke-dasharray:0,10.5642;}
	.st50{fill:none;stroke:#35313B;stroke-width:5.223;stroke-linecap:round;stroke-miterlimit:10;}
	.st51{fill:none;stroke:#35313B;stroke-width:5.223;stroke-linecap:round;stroke-miterlimit:10;stroke-dasharray:0,10.5654;}
	.st52{fill:none;stroke:#FFFFFF;stroke-width:4;stroke-miterlimit:10;}
</style>
<g>
	<g>
		<rect x="0.43" class="st0" width="296.17" height="420.94"/>
		<g>
			<path class="st1" d="M158.27,141.69c-6.07,10.66-18.56,19.44-30.44,15.84c-11.71-3.55-16.82-16.68-21.09-27.99
				c-4.26-11.3-11.6-24.08-23.85-24.73c-12.16-0.65-20.92,11.07-32.06,15.92c-17.13,7.44-37.9-3.24-47.77-18.9
				c-0.94-1.5-1.82-3.04-2.63-4.62V0h164.03c-4.23,9.87-7.2,20.13-8,30.88c-1.42,18.74,3.86,37.24,7.06,55.78
				C166.72,105.19,167.6,125.3,158.27,141.69z"/>
			<path class="st2" d="M296.59,0v315.5c-5.33-6.03-11.22-11.62-17.26-16.71c-21.51-18.12-46.36-33.39-62.05-56.58
				c-15.26-22.56-20.21-51.6-13.27-77.82c3.83-14.49,11.03-27.89,16.24-41.95c5.21-14.08,8.39-29.66,3.89-43.97
				c-5.41-17.26-21.23-30.29-25.01-47.95c-2.21-10.37,0-20.66,4.2-30.52H296.59z"/>
			<path class="st2" d="M250.74,420.94H0.44V250.66c9.15,10.63,22.77,17.65,36.97,17.73c21.4,0.12,44.48-13.12,62.77-2.19
				c9.04,5.39,14.09,15.72,15.54,26.03c1.45,10.3-0.2,20.75-1.79,31.05c-1.54,9.95-2.84,20.96,2.8,29.38
				c8.11,12.17,26.33,12.59,40.42,8.16c14.09-4.44,27.5-12.38,42.29-12.42c25.54-0.08,45.36,24.17,50.13,48.83
				C251.08,405.03,251.45,413.03,250.74,420.94z"/>
		</g>
	</g>
	<g>
		<defs>
			<rect id="SVGID_1_" x="0.43" y="0" width="296.17" height="420.94"/>
		</defs>
		<clipPath id="SVGID_2_">
			<use xlink:href="#SVGID_1_"  style="overflow:visible;"/>
		</clipPath>
		<g class="st3">
			<g>
				<line class="st4" x1="11.29" y1="13.57" x2="20.95" y2="13.57"/>
				<line class="st4" x1="39.75" y1="37.49" x2="49.4" y2="37.49"/>
				<line class="st4" x1="102.13" y1="97.49" x2="111.79" y2="97.49"/>
				<line class="st4" x1="83.48" y1="76.09" x2="75.8" y2="81.84"/>
				<line class="st4" x1="111.79" y1="67.25" x2="121.44" y2="67.25"/>
				<line class="st4" x1="53.36" y1="78.97" x2="63.02" y2="78.97"/>
				<line class="st4" x1="54.49" y1="101.25" x2="56.62" y2="91.99"/>
				<line class="st4" x1="50.67" y1="52.79" x2="56.05" y2="60.67"/>
				<line class="st4" x1="31.29" y1="9.29" x2="35.46" y2="17.85"/>
				<line class="st4" x1="38.63" y1="88.04" x2="30.43" y2="93.06"/>
				<line class="st4" x1="74.32" y1="50.19" x2="70.47" y2="58.9"/>
				<line class="st4" x1="50.73" y1="112.2" x2="42.16" y2="107.83"/>
				<line class="st4" x1="112.2" y1="35.37" x2="108.07" y2="43.95"/>
				<line class="st4" x1="18.61" y1="76.27" x2="23.03" y2="67.83"/>
				<line class="st4" x1="119.39" y1="32.88" x2="122.88" y2="24.02"/>
				<line class="st4" x1="101.74" y1="26.88" x2="96.25" y2="19.07"/>
				<line class="st4" x1="88.25" y1="36.9" x2="78.7" y2="35.49"/>
				<line class="st4" x1="142.05" y1="25.01" x2="138.9" y2="33.99"/>
				<line class="st4" x1="149.98" y1="5.01" x2="146.83" y2="13.99"/>
				<line class="st4" x1="150.49" y1="42.5" x2="146.54" y2="51.17"/>
				<line class="st4" x1="130.07" y1="9.62" x2="121.85" y2="14.6"/>
				<line class="st4" x1="125.85" y1="44.23" x2="130.02" y2="52.79"/>
				<line class="st4" x1="18.74" y1="97.49" x2="22.91" y2="106.05"/>
				<line class="st4" x1="144.34" y1="62.97" x2="148.52" y2="71.53"/>
				<line class="st4" x1="148.4" y1="86.27" x2="152.58" y2="94.83"/>
				<line class="st4" x1="138.59" y1="144.09" x2="132.64" y2="136.61"/>
				<line class="st4" x1="148.4" y1="114.37" x2="152.58" y2="122.93"/>
				<line class="st4" x1="30.36" y1="50.25" x2="34.53" y2="58.82"/>
				<line class="st4" x1="9.3" y1="53.72" x2="18.77" y2="51.86"/>
				<line class="st4" x1="61.37" y1="12.11" x2="52.58" y2="16.04"/>
				<line class="st4" x1="74.96" y1="16.04" x2="81.56" y2="22.97"/>
				<line class="st4" x1="59.72" y1="32.73" x2="66.32" y2="39.66"/>
				<line class="st4" x1="90.45" y1="9.5" x2="100.1" y2="9.07"/>
				<line class="st4" x1="121.13" y1="86.48" x2="130.78" y2="86.06"/>
				<line class="st4" x1="133.77" y1="100.65" x2="143.41" y2="100.23"/>
				<line class="st4" x1="105.31" y1="113.55" x2="114.96" y2="113.12"/>
				<line class="st4" x1="76.8" y1="100.4" x2="84.44" y2="94.58"/>
				<line class="st4" x1="122.64" y1="124.7" x2="129.28" y2="117.8"/>
				<line class="st4" x1="99.07" y1="54.54" x2="90.57" y2="63.21"/>
				<line class="st4" x1="100.63" y1="73.39" x2="97.36" y2="82.33"/>
				<line class="st4" x1="20.82" y1="28.45" x2="24.99" y2="37.01"/>
			</g>
			<g>
				<line class="st5" x1="0.97" y1="125.47" x2="27.1" y2="125.47"/>
				<line class="st5" x1="0.97" y1="134.91" x2="27.1" y2="134.91"/>
				<line class="st5" x1="0.97" y1="144.34" x2="27.1" y2="144.34"/>
				<line class="st5" x1="0.97" y1="153.78" x2="27.1" y2="153.78"/>
				<line class="st5" x1="0.97" y1="163.22" x2="27.1" y2="163.22"/>
				<line class="st5" x1="0.97" y1="172.65" x2="27.1" y2="172.65"/>
				<line class="st5" x1="0.97" y1="182.09" x2="27.1" y2="182.09"/>
				<line class="st5" x1="0.97" y1="191.53" x2="27.1" y2="191.53"/>
				<line class="st5" x1="0.97" y1="200.96" x2="27.1" y2="200.96"/>
			</g>
			<g>
				<g>
					<g>
						<line class="st6" x1="157.25" y1="291.7" x2="157.25" y2="291.7"/>
						<line class="st7" x1="145.77" y1="291.7" x2="48.15" y2="291.7"/>
						<line class="st6" x1="42.41" y1="291.7" x2="42.41" y2="291.7"/>
					</g>
				</g>
				<g>
					<g>
						<line class="st6" x1="157.25" y1="305.77" x2="157.25" y2="305.77"/>
						<line class="st7" x1="145.77" y1="305.77" x2="48.15" y2="305.77"/>
						<line class="st6" x1="42.41" y1="305.77" x2="42.41" y2="305.77"/>
					</g>
				</g>
				<g>
					<g>
						<line class="st6" x1="157.25" y1="333.9" x2="157.25" y2="333.9"/>
						<line class="st7" x1="145.77" y1="333.9" x2="48.15" y2="333.9"/>
						<line class="st6" x1="42.41" y1="333.9" x2="42.41" y2="333.9"/>
					</g>
				</g>
				<g>
					<g>
						<line class="st6" x1="157.25" y1="319.83" x2="157.25" y2="319.83"/>
						<line class="st7" x1="145.77" y1="319.83" x2="48.15" y2="319.83"/>
						<line class="st6" x1="42.41" y1="319.83" x2="42.41" y2="319.83"/>
					</g>
				</g>
			</g>
			<g>
				<g>
					<g>
						<line class="st8" x1="282.18" y1="200.09" x2="282.18" y2="200.09"/>
						<line class="st9" x1="274.68" y1="192.72" x2="248.43" y2="166.9"/>
						<line class="st8" x1="244.68" y1="163.22" x2="244.68" y2="163.22"/>
					</g>
				</g>
			</g>
			<g>
				<path class="st10" d="M23.87,373.46c9.62,0,9.62,6.27,19.23,6.27c9.62,0,9.62-6.27,19.23-6.27c9.62,0,9.62,6.27,19.23,6.27
					c9.62,0,9.62-6.27,19.23-6.27c9.62,0,9.62,6.27,19.23,6.27s9.62-6.27,19.23-6.27"/>
			</g>
			<g>
				<line class="st11" x1="146.76" y1="434.8" x2="317.48" y2="266.95"/>
				<line class="st11" x1="153.54" y1="441.47" x2="324.27" y2="273.63"/>
				<line class="st11" x1="160.33" y1="448.15" x2="331.06" y2="280.3"/>
				<line class="st11" x1="167.12" y1="454.82" x2="337.84" y2="286.97"/>
				<line class="st11" x1="173.9" y1="461.49" x2="344.63" y2="293.64"/>
				<line class="st11" x1="180.69" y1="468.16" x2="351.42" y2="300.32"/>
				<line class="st11" x1="187.48" y1="474.84" x2="358.2" y2="306.99"/>
				<line class="st11" x1="194.26" y1="481.51" x2="364.99" y2="313.66"/>
				<line class="st11" x1="201.05" y1="488.18" x2="371.78" y2="320.33"/>
			</g>
			<g>
				<line class="st12" x1="210.99" y1="71.53" x2="210.99" y2="0"/>
				<line class="st12" x1="220.59" y1="71.53" x2="220.59" y2="0"/>
				<line class="st12" x1="230.19" y1="71.53" x2="230.19" y2="0"/>
				<line class="st12" x1="239.79" y1="71.53" x2="239.79" y2="0"/>
				<line class="st12" x1="249.39" y1="71.53" x2="249.39" y2="0"/>
				<line class="st12" x1="258.99" y1="71.53" x2="258.99" y2="0"/>
				<line class="st12" x1="268.58" y1="71.53" x2="268.58" y2="0"/>
				<line class="st12" x1="278.18" y1="71.53" x2="278.18" y2="0"/>
				<line class="st12" x1="287.78" y1="71.53" x2="287.78" y2="0"/>
			</g>
			<ellipse class="st13" cx="215.84" cy="283.11" rx="19.45" ry="19.12"/>
			<path class="st14" d="M211.17,144.09c0,10.56-8.71,19.12-19.45,19.12c-10.74,0-19.45-8.56-19.45-19.12"/>
			<path class="st10" d="M96.24,269.66c-7.6,7.47-19.91,7.47-27.51,0c-7.6-7.47-7.6-19.58,0-27.05"/>
			<g>
				<polyline class="st15" points="152.58,102.92 160.4,109.19 168.23,102.92 176.05,109.19 183.88,102.92 191.7,109.19 
					199.53,102.92 207.36,109.19 215.19,102.92 223.02,109.19 230.85,102.92 				"/>
			</g>
			<ellipse class="st16" cx="24.04" cy="122.93" rx="51.76" ry="50.88"/>
			<polygon class="st17" points="36.1,206.47 15.58,241.41 56.62,241.41 			"/>
			<polygon class="st1" points="210.96,323.8 191.14,329.03 205.65,343.29 			"/>
			<polygon class="st18" points="141.36,52.64 173.15,44.26 149.88,21.38 			"/>
			<polygon class="st1" points="240.59,124.7 282.18,148.3 282.18,101.09 			"/>
		</g>
	</g>
</g>
<g>
	<g>
		<g>
			<defs>
				<rect id="SVGID_3_" x="296.6" y="0" width="298.68" height="420.94"/>
			</defs>
			<clipPath id="SVGID_4_">
				<use xlink:href="#SVGID_3_"  style="overflow:visible;"/>
			</clipPath>
			<g class="st21">
				<g>
					<line class="st25" x1="417.07" y1="-7.17" x2="293.73" y2="112.99"/>
					<line class="st25" x1="407.61" y1="-16.4" x2="284.27" y2="103.75"/>
					<line class="st25" x1="398.14" y1="-25.64" x2="274.8" y2="94.51"/>
					<line class="st25" x1="388.67" y1="-34.88" x2="265.33" y2="85.28"/>
					<line class="st25" x1="379.2" y1="-44.11" x2="255.86" y2="76.04"/>
					<line class="st25" x1="369.73" y1="-53.35" x2="246.39" y2="66.8"/>
				</g>
			</g>
		</g>
	</g>
</g>
<g>
	<g>
		<defs>
			<polygon id="SVGID_5_" points="296.6,420.94 296.6,450.93 296.6,510.13 296.6,719.93 296.6,841.89 340.43,841.89 554.85,841.89 
				595.27,841.89 595.27,762.22 595.27,613.27 595.27,573.28 595.27,420.94 			"/>
		</defs>
		<clipPath id="SVGID_6_">
			<use xlink:href="#SVGID_5_"  style="overflow:visible;"/>
		</clipPath>
		<g class="st37">
		</g>
	</g>
</g>
</svg>
