<?xml version="1.0" encoding="utf-8"?>
<!-- Generator: Adobe Illustrator 25.2.0, SVG Export Plug-In . SVG Version: 6.00 Build 0)  -->
<svg version="1.1" id="Calque_1" xmlns="http://www.w3.org/2000/svg" xmlns:xlink="http://www.w3.org/1999/xlink" x="0px" y="0px"
	 viewBox="0 0 288.81 413.04" style="enable-background:new 0 0 288.81 413.04;" xml:space="preserve">
<style type="text/css">
	.st0{fill:#6DC5CB;}
	.st1{fill:#F6B1B5;}
	.st2{fill:#0097DA;}
	.st3{clip-path:url(#SVGID_2_);}
	.st4{fill:none;stroke:#0097DA;stroke-width:2.0892;stroke-miterlimit:10;}
	.st5{fill:none;stroke:#0097DA;stroke-width:3.1338;stroke-miterlimit:10;}
	.st6{fill:none;stroke:#352E39;stroke-width:4.1784;stroke-linecap:round;stroke-miterlimit:10;}
	.st7{fill:none;stroke:#352E39;stroke-width:4.1784;stroke-linecap:round;stroke-miterlimit:10;stroke-dasharray:0,11.1683;}
	.st8{fill:none;stroke:#352E39;stroke-width:5.223;stroke-linecap:round;stroke-miterlimit:10;}
	.st9{fill:none;stroke:#352E39;stroke-width:5.223;stroke-linecap:round;stroke-miterlimit:10;stroke-dasharray:0,13.1324;}
	.st10{fill:none;stroke:#F6B1B5;stroke-width:4.1784;stroke-linecap:round;stroke-miterlimit:10;}
	.st11{fill:none;stroke:#FFFFFF;stroke-width:2.0892;stroke-miterlimit:10;}
	.st12{fill:none;stroke:#EEBC2E;stroke-width:3.1338;stroke-miterlimit:10;}
	.st13{fill:none;stroke:#FFFFFF;stroke-width:3.1338;stroke-miterlimit:10;}
	.st14{fill:none;stroke:#F6B1B5;stroke-width:4.1784;stroke-miterlimit:10;}
	.st15{fill:none;stroke:#FFFFFF;stroke-width:3.1338;stroke-linejoin:round;stroke-miterlimit:10;}
	.st16{fill:none;stroke:#FFFFFF;stroke-width:4.1784;stroke-miterlimit:10;}
	.st17{fill:#EEBC2E;}
	.st18{fill:#FFFFFF;}
	.st19{fill:#C8BE9D;}
	.st20{fill:#F1893D;}
	.st21{clip-path:url(#SVGID_4_);}
	.st22{fill:none;stroke:#F1893D;stroke-width:6.2676;stroke-linecap:round;stroke-miterlimit:10;}
	.st23{fill:none;stroke:#F1893D;stroke-width:6.2676;stroke-linecap:round;stroke-miterlimit:10;stroke-dasharray:0,11.1865;}
	.st24{fill:none;stroke:#EEBC2E;stroke-width:5.0087;stroke-miterlimit:10;}
	.st25{fill:none;stroke:#FFFFFF;stroke-width:5.1631;stroke-miterlimit:10;}
	.st26{fill:none;stroke:#0097DA;stroke-width:4.3899;stroke-linecap:round;stroke-miterlimit:10;}
	.st27{fill:none;stroke:#0097DA;stroke-width:4.3899;stroke-linecap:round;stroke-miterlimit:10;stroke-dasharray:0,12.3904;}
	.st28{fill:none;stroke:#FFFFFF;stroke-width:4.2271;stroke-miterlimit:10;}
	.st29{fill:none;stroke:#352E39;stroke-width:3.1338;stroke-miterlimit:10;}
	.st30{fill:none;stroke:#352E39;stroke-width:2.6115;stroke-miterlimit:10;}
	.st31{fill:none;stroke:#35313B;stroke-width:4.1784;stroke-miterlimit:10;}
	.st32{fill:none;stroke:#352E39;stroke-width:4.1784;stroke-miterlimit:10;}
	.st33{fill:none;stroke:#00A9B9;stroke-width:4.1784;stroke-linecap:round;stroke-miterlimit:10;}
	.st34{fill:none;stroke:#00A9B9;stroke-width:2;stroke-miterlimit:10;}
	.st35{fill:#C1E5F8;}
	.st36{fill:#00A9B9;}
	.st37{clip-path:url(#SVGID_6_);}
	.st38{fill:none;stroke:#F6B1B5;stroke-width:2.6115;stroke-miterlimit:10;}
	.st39{fill:none;stroke:#FFFFFF;stroke-width:4.7007;stroke-linecap:round;stroke-miterlimit:10;}
	.st40{fill:none;stroke:#FFFFFF;stroke-width:4.7007;stroke-linecap:round;stroke-miterlimit:10;stroke-dasharray:0,8.9829;}
	.st41{fill:none;stroke:#35313B;stroke-width:3.1338;stroke-linejoin:round;stroke-miterlimit:10;}
	.st42{fill:none;stroke:#0097DA;stroke-width:4.1784;stroke-linecap:round;stroke-miterlimit:10;}
	.st43{fill:#352E39;}
	.st44{fill:none;stroke:#00A9B9;stroke-width:4.1784;stroke-miterlimit:10;}
	.st45{fill:none;stroke:#F1893D;stroke-width:4.2271;stroke-miterlimit:10;}
	.st46{fill:none;stroke:#35313B;stroke-width:3.1338;stroke-miterlimit:10;}
	.st47{fill:none;stroke:#F1893D;stroke-width:3.1338;stroke-miterlimit:10;}
	.st48{fill:none;stroke:#EEBC2E;stroke-width:5;stroke-linecap:round;stroke-miterlimit:10;}
	.st49{fill:none;stroke:#EEBC2E;stroke-width:5;stroke-linecap:round;stroke-miterlimit:10;stroke-dasharray:0,9.9598;}
	.st50{fill:none;stroke:#EEBC2E;stroke-width:5;stroke-linecap:round;stroke-miterlimit:10;stroke-dasharray:0,9.9597;}
	.st51{fill:none;stroke:#35313B;stroke-width:5.223;stroke-linecap:round;stroke-miterlimit:10;}
	.st52{fill:none;stroke:#35313B;stroke-width:5.223;stroke-linecap:round;stroke-miterlimit:10;stroke-dasharray:0,9.9574;}
	.st53{fill:none;stroke:#FFFFFF;stroke-width:4;stroke-miterlimit:10;}
</style>
<g>
	<g>
		<g>
			<rect class="st19" width="288.81" height="413.04"/>
			<g>
				<path class="st20" d="M49.67,325.33c1.25,24.96,24.84,45.71,22.87,70.63c-0.5,6.32-2.65,12.04-6,17.08H0V205.36
					c6.31,6.3,15.61,8.51,23.76,12.31c23.37,10.87,38.15,37.5,34.85,62.85C56.62,295.68,48.9,310.07,49.67,325.33z"/>
				<path class="st20" d="M288.81,0v194.05c-6.63-12.25-14.7-23.73-24.03-34.13c-7.55-8.41-15.95-16.19-21.83-25.81
					c-5.88-9.61-8.93-21.76-4.69-32.18c5.18-12.77,20.44-21.46,20.41-35.23c-0.02-13.07-15.2-21.94-28.32-20.51
					c-13.14,1.43-24.26,9.87-34.61,17.97c-16.17,12.64-32.32,25.28-48.47,37.93c-13.3,10.4-27.9,21.31-44.85,21.79
					c-24.98,0.7-45.88-24.25-45.05-48.96c0.81-24.71,19.39-46.55,42.23-56.61c10.4-4.58,21.76-7.17,31.26-13.35
					c2.17-1.4,4.23-3.09,6.09-4.96H288.81z"/>
				<path class="st2" d="M270.61,307.58c6.6-0.04,12.82-2.31,18.2-5.99v111.45h-169.4c-6.06-6.95-9.61-15.78-8.81-27.08
					c1.08-15.34,13.72-29.12,29.05-31.67c14.04-2.32,29.59,3.7,42.12-2.98c19.36-10.34,17.33-43.33,37.69-51.58
					C235.72,293.13,253.03,307.74,270.61,307.58z"/>
			</g>
		</g>
		<g>
			<defs>
				<rect id="SVGID_3_" width="288.81" height="413.04"/>
			</defs>
			<clipPath id="SVGID_2_">
				<use xlink:href="#SVGID_3_"  style="overflow:visible;"/>
			</clipPath>
			<g class="st3">
				<g>
					<g>
						<g>
							<g>
								<line class="st22" x1="122.28" y1="326.73" x2="122.28" y2="326.73"/>
								<line class="st23" x1="122.24" y1="315.54" x2="122.14" y2="287.58"/>
								<line class="st22" x1="122.12" y1="281.98" x2="122.12" y2="281.98"/>
							</g>
						</g>
					</g>
					<g>
						<g>
							<g>
								<line class="st22" x1="111.35" y1="326.73" x2="111.35" y2="326.73"/>
								<line class="st23" x1="111.31" y1="315.54" x2="111.2" y2="287.58"/>
								<line class="st22" x1="111.18" y1="281.98" x2="111.18" y2="281.98"/>
							</g>
						</g>
					</g>
				</g>
				<g>
					<line class="st24" x1="215.84" y1="355.32" x2="255.09" y2="355.32"/>
					<line class="st24" x1="215.84" y1="365.49" x2="255.09" y2="365.49"/>
					<line class="st24" x1="215.84" y1="375.66" x2="255.09" y2="375.66"/>
					<line class="st24" x1="215.84" y1="385.83" x2="255.09" y2="385.83"/>
					<line class="st24" x1="215.84" y1="395.99" x2="255.09" y2="395.99"/>
					<line class="st24" x1="215.84" y1="406.16" x2="255.09" y2="406.16"/>
				</g>
				<g>
					<line class="st25" x1="123.74" y1="46.03" x2="37.82" y2="149.13"/>
					<line class="st25" x1="117.15" y1="38.11" x2="31.23" y2="141.2"/>
					<line class="st25" x1="110.55" y1="30.18" x2="24.63" y2="133.28"/>
					<line class="st25" x1="103.95" y1="22.25" x2="18.04" y2="125.35"/>
					<line class="st25" x1="97.36" y1="14.33" x2="11.44" y2="117.42"/>
					<line class="st25" x1="90.76" y1="6.4" x2="4.85" y2="109.5"/>
				</g>
				<g>
					<g>
						<g>
							<line class="st26" x1="195.19" y1="137.75" x2="195.19" y2="137.75"/>
							<line class="st27" x1="182.8" y1="137.75" x2="139.44" y2="137.75"/>
							<line class="st26" x1="133.24" y1="137.75" x2="133.24" y2="137.75"/>
						</g>
					</g>
					<g>
						<g>
							<line class="st26" x1="195.19" y1="150.43" x2="195.19" y2="150.43"/>
							<line class="st27" x1="182.8" y1="150.43" x2="139.44" y2="150.43"/>
							<line class="st26" x1="133.24" y1="150.43" x2="133.24" y2="150.43"/>
						</g>
					</g>
					<g>
						<g>
							<line class="st26" x1="195.19" y1="163.11" x2="195.19" y2="163.11"/>
							<line class="st27" x1="182.8" y1="163.11" x2="139.44" y2="163.11"/>
							<line class="st26" x1="133.24" y1="163.11" x2="133.24" y2="163.11"/>
						</g>
					</g>
				</g>
				<ellipse class="st28" cx="165.28" cy="300.89" rx="18.43" ry="22.13"/>
				<ellipse class="st29" cx="236.13" cy="89.89" rx="45.47" ry="54.61"/>
				<path class="st2" d="M74.31,352.49l23.94-1.18c0.87-0.04,1.4-0.97,0.99-1.74l-12.82-24.3c-0.46-0.88-1.74-0.83-2.14,0.08
					l-11.12,25.48C72.81,351.63,73.43,352.53,74.31,352.49z"/>
				<path class="st1" d="M143.93,114.2l-11.77-28.5c-0.38-0.92-1.65-0.99-2.13-0.12l-14.66,26.49c-0.42,0.76,0.09,1.69,0.95,1.76
					l26.44,2C143.62,115.9,144.27,115.01,143.93,114.2z"/>
				<path class="st18" d="M229.66,186.27l-19.78,6.36c-0.8,0.26-1.09,1.24-0.55,1.89l14.48,17.39c0.63,0.76,1.85,0.46,2.07-0.5
					l5.3-23.75C231.38,186.76,230.53,185.99,229.66,186.27z"/>
				<g>
					<line class="st30" x1="55.32" y1="272.83" x2="47.65" y2="271.65"/>
					<line class="st30" x1="68.61" y1="334.53" x2="60.94" y2="333.35"/>
					<line class="st30" x1="74.4" y1="298.38" x2="71.75" y2="307.1"/>
					<line class="st30" x1="75.03" y1="370.46" x2="79.2" y2="362.64"/>
					<line class="st30" x1="68.94" y1="375.04" x2="63.03" y2="369.07"/>
					<line class="st30" x1="82.69" y1="381.26" x2="76.33" y2="386.55"/>
					<line class="st30" x1="56.06" y1="373.78" x2="51.21" y2="366.55"/>
					<line class="st30" x1="43.98" y1="393.89" x2="47.41" y2="385.57"/>
					<line class="st30" x1="47.45" y1="357.47" x2="51.49" y2="349.55"/>
					<line class="st30" x1="61.22" y1="386.48" x2="66.36" y2="393.41"/>
					<line class="st30" x1="57.82" y1="357.51" x2="64.62" y2="353.08"/>
					<line class="st30" x1="53.64" y1="341.02" x2="51.21" y2="332.2"/>
					<line class="st30" x1="53.64" y1="318.41" x2="51.21" y2="309.59"/>
					<line class="st30" x1="44.3" y1="306.24" x2="50.61" y2="300.89"/>
					<line class="st30" x1="69.38" y1="267.66" x2="73.33" y2="275.64"/>
					<line class="st30" x1="50.68" y1="291.45" x2="48.26" y2="282.63"/>
					<line class="st30" x1="57.59" y1="408" x2="53.07" y2="400.48"/>
					<line class="st30" x1="86.9" y1="401.73" x2="79.2" y2="400.97"/>
					<line class="st30" x1="68.6" y1="318.41" x2="61.69" y2="322.58"/>
					<line class="st30" x1="49.76" y1="324.03" x2="42.27" y2="321.74"/>
					<line class="st30" x1="60.5" y1="304.36" x2="60.04" y2="295.09"/>
					<line class="st30" x1="57.95" y1="287.9" x2="63.93" y2="282.02"/>
					<line class="st30" x1="59.18" y1="260.79" x2="51.48" y2="260.02"/>
					<line class="st30" x1="66.84" y1="257.66" x2="63.45" y2="266.01"/>
					<line class="st30" x1="50.78" y1="247.58" x2="44.12" y2="252.29"/>
					<line class="st30" x1="78.07" y1="281.16" x2="72.08" y2="287.04"/>
					<line class="st30" x1="69.6" y1="403.96" x2="73.12" y2="395.7"/>
				</g>
				<path class="st31" d="M146.15,377.57c-5.12,6.65-13.77,7.06-19.31,0.91c-5.54-6.15-5.88-16.54-0.75-23.19"/>
				<g>
					<polyline class="st15" points="189.78,370.06 198.48,363.61 195.27,353.26 203.98,346.82 200.77,336.47 209.48,330.02 
						206.27,319.67 214.98,313.22 211.77,302.87 220.48,296.42 217.27,286.06 					"/>
				</g>
				<path class="st32" d="M92.47,125.94c6.21,5.15,7.77,15.37,3.49,22.83c-4.29,7.46-12.8,9.33-19.01,4.19"/>
				<g>
					<path class="st33" d="M59.22,186.45c6.75,0,6.75,6.27,13.5,6.27c6.75,0,6.75-6.27,13.51-6.27c6.76,0,6.76,6.27,13.51,6.27
						c6.75,0,6.75-6.27,13.51-6.27c6.76,0,6.76,6.27,13.52,6.27c6.76,0,6.76-6.27,13.52-6.27"/>
				</g>
				<ellipse class="st18" cx="171.84" cy="393.41" rx="7.62" ry="9.15"/>
				<path class="st2" d="M165.28,74.45c0,3.43-2.31,6.2-5.17,6.2c-2.85,0-5.17-2.78-5.17-6.2c0-3.43,2.31-6.2,5.17-6.2
					C162.97,68.25,165.28,71.02,165.28,74.45z"/>
				<path class="st34" d="M239.66,79.15c0,4.82-3.25,8.73-7.27,8.73c-4.01,0-7.27-3.91-7.27-8.73s3.25-8.73,7.27-8.73
					C236.41,70.42,239.66,74.33,239.66,79.15z"/>
			</g>
		</g>
	</g>
</g>
</svg>
