<?xml version="1.0" encoding="utf-8"?>
<!-- Generator: Adobe Illustrator 25.2.0, SVG Export Plug-In . SVG Version: 6.00 Build 0)  -->
<svg version="1.1" id="Calque_1" xmlns="http://www.w3.org/2000/svg" xmlns:xlink="http://www.w3.org/1999/xlink" x="0px" y="0px"
	 viewBox="0 0 288.81 412" style="enable-background:new 0 0 288.81 412;" xml:space="preserve">
<style type="text/css">
	.st0{fill:#6DC5CB;}
	.st1{fill:#F6B1B5;}
	.st2{fill:#0097DA;}
	.st3{clip-path:url(#SVGID_2_);}
	.st4{fill:none;stroke:#0097DA;stroke-width:2.0892;stroke-miterlimit:10;}
	.st5{fill:none;stroke:#0097DA;stroke-width:3.1338;stroke-miterlimit:10;}
	.st6{fill:none;stroke:#352E39;stroke-width:4.1784;stroke-linecap:round;stroke-miterlimit:10;}
	.st7{fill:none;stroke:#352E39;stroke-width:4.1784;stroke-linecap:round;stroke-miterlimit:10;stroke-dasharray:0,11.1683;}
	.st8{fill:none;stroke:#352E39;stroke-width:5.223;stroke-linecap:round;stroke-miterlimit:10;}
	.st9{fill:none;stroke:#352E39;stroke-width:5.223;stroke-linecap:round;stroke-miterlimit:10;stroke-dasharray:0,13.1324;}
	.st10{fill:none;stroke:#F6B1B5;stroke-width:4.1784;stroke-linecap:round;stroke-miterlimit:10;}
	.st11{fill:none;stroke:#FFFFFF;stroke-width:2.0892;stroke-miterlimit:10;}
	.st12{fill:none;stroke:#EEBC2E;stroke-width:3.1338;stroke-miterlimit:10;}
	.st13{fill:none;stroke:#FFFFFF;stroke-width:3.1338;stroke-miterlimit:10;}
	.st14{fill:none;stroke:#F6B1B5;stroke-width:4.1784;stroke-miterlimit:10;}
	.st15{fill:none;stroke:#FFFFFF;stroke-width:3.1338;stroke-linejoin:round;stroke-miterlimit:10;}
	.st16{fill:none;stroke:#FFFFFF;stroke-width:4.1784;stroke-miterlimit:10;}
	.st17{fill:#EEBC2E;}
	.st18{fill:#FFFFFF;}
	.st19{fill:#C8BE9D;}
	.st20{fill:#F1893D;}
	.st21{clip-path:url(#SVGID_4_);}
	.st22{fill:none;stroke:#F1893D;stroke-width:6.2676;stroke-linecap:round;stroke-miterlimit:10;}
	.st23{fill:none;stroke:#F1893D;stroke-width:6.2676;stroke-linecap:round;stroke-miterlimit:10;stroke-dasharray:0,11.1865;}
	.st24{fill:none;stroke:#EEBC2E;stroke-width:5.0087;stroke-miterlimit:10;}
	.st25{fill:none;stroke:#FFFFFF;stroke-width:5.1631;stroke-miterlimit:10;}
	.st26{fill:none;stroke:#0097DA;stroke-width:4.3899;stroke-linecap:round;stroke-miterlimit:10;}
	.st27{fill:none;stroke:#0097DA;stroke-width:4.3899;stroke-linecap:round;stroke-miterlimit:10;stroke-dasharray:0,12.3904;}
	.st28{fill:none;stroke:#FFFFFF;stroke-width:4.2271;stroke-miterlimit:10;}
	.st29{fill:none;stroke:#352E39;stroke-width:3.1338;stroke-miterlimit:10;}
	.st30{fill:none;stroke:#352E39;stroke-width:2.6115;stroke-miterlimit:10;}
	.st31{fill:none;stroke:#35313B;stroke-width:4.1784;stroke-miterlimit:10;}
	.st32{fill:none;stroke:#352E39;stroke-width:4.1784;stroke-miterlimit:10;}
	.st33{fill:none;stroke:#00A9B9;stroke-width:4.1784;stroke-linecap:round;stroke-miterlimit:10;}
	.st34{fill:none;stroke:#00A9B9;stroke-width:2;stroke-miterlimit:10;}
	.st35{fill:#C1E5F8;}
	.st36{fill:#00A9B9;}
	.st37{clip-path:url(#SVGID_6_);}
	.st38{fill:none;stroke:#F6B1B5;stroke-width:2.6115;stroke-miterlimit:10;}
	.st39{fill:none;stroke:#FFFFFF;stroke-width:4.7007;stroke-linecap:round;stroke-miterlimit:10;}
	.st40{fill:none;stroke:#FFFFFF;stroke-width:4.7007;stroke-linecap:round;stroke-miterlimit:10;stroke-dasharray:0,8.9829;}
	.st41{fill:none;stroke:#35313B;stroke-width:3.1338;stroke-linejoin:round;stroke-miterlimit:10;}
	.st42{fill:none;stroke:#0097DA;stroke-width:4.1784;stroke-linecap:round;stroke-miterlimit:10;}
	.st43{fill:#352E39;}
	.st44{fill:none;stroke:#00A9B9;stroke-width:4.1784;stroke-miterlimit:10;}
	.st45{fill:none;stroke:#F1893D;stroke-width:4.2271;stroke-miterlimit:10;}
	.st46{fill:none;stroke:#35313B;stroke-width:3.1338;stroke-miterlimit:10;}
	.st47{fill:none;stroke:#F1893D;stroke-width:3.1338;stroke-miterlimit:10;}
	.st48{fill:none;stroke:#EEBC2E;stroke-width:5;stroke-linecap:round;stroke-miterlimit:10;}
	.st49{fill:none;stroke:#EEBC2E;stroke-width:5;stroke-linecap:round;stroke-miterlimit:10;stroke-dasharray:0,9.9598;}
	.st50{fill:none;stroke:#EEBC2E;stroke-width:5;stroke-linecap:round;stroke-miterlimit:10;stroke-dasharray:0,9.9597;}
	.st51{fill:none;stroke:#35313B;stroke-width:5.223;stroke-linecap:round;stroke-miterlimit:10;}
	.st52{fill:none;stroke:#35313B;stroke-width:5.223;stroke-linecap:round;stroke-miterlimit:10;stroke-dasharray:0,9.9574;}
	.st53{fill:none;stroke:#FFFFFF;stroke-width:4;stroke-miterlimit:10;}
</style>
<g>
	<g>
		<polygon class="st35" points="0,0 0,29.35 0,87.3 0,292.63 0,412 42.38,412 249.72,412 288.81,412 288.81,334.02 288.81,188.24 
			288.81,149.1 288.81,0 		"/>
		<g>
			<path class="st20" d="M288.81,0v149.1c-9.13-2.62-18.71-4.45-25.36-10.9c-9.28-9.01-10.09-24.63-20.46-32.42
				c-12.93-9.71-31.04-1.5-47.13,0.74c-23.53,3.3-48.53-8.83-60.25-29.24c-8-13.93-10.79-31.73-23.82-41.28
				c-14.55-10.66-34.97-6.14-52.31-0.92c-17.34,5.22-37.41,10.35-52.54,0.49C4.26,33.82,1.96,31.71,0,29.35V0H288.81z"/>
			<path class="st20" d="M129.42,208.96c-2.14,31.37-28.34,59.54-59.83,64.33c-15.17,2.32-31.05-0.24-45.76,4.13
				C14.49,280.2,6.49,285.62,0,292.63V87.3c3.48,1.17,7.14,1.86,10.97,1.92c10.94,0.18,21.61-4.49,32.53-3.76
				c10.92,0.74,22.57,11.39,17.75,21.08c-1.69,3.39-5.05,5.8-6.43,9.31c-2.21,5.66,1.6,12.15,6.76,15.42
				c5.17,3.29,11.42,4.3,17.33,6.02C109.44,146.21,131.57,177.6,129.42,208.96z"/>
			<path class="st20" d="M249.72,412H42.38c0.75-3.42,1.25-6.9,1.63-10.36c3.04-27.59,0.99-57.5,16.47-80.68
				c3.87-5.78,8.93-11.06,15.43-13.71c6.48-2.65,14.57-2.22,19.84,2.36c8.8,7.63,6.99,23.03,16.2,30.16
				c6.69,5.17,16.62,3.64,24.02-0.49c7.4-4.12,13.33-10.39,20.46-14.94c21.8-13.9,54.21-7.7,69.17,13.22
				c8.18,11.42,11.13,25.59,13.77,39.32C241.66,388.91,244,401.25,249.72,412z"/>
			<path class="st36" d="M288.81,188.24v145.78c-8.9-6.14-17.55-12.65-25.91-19.5c-17.43-14.3-34.14-30.89-41.61-52.02
				c-7.47-21.11-3.25-47.66,15.08-60.82c9.76-6.99,22.09-9.43,34.05-10.99C276.53,189.9,282.72,189.28,288.81,188.24z"/>
		</g>
	</g>
	<g>
		<defs>
			<polygon id="SVGID_5_" points="0,0 0,29.35 0,87.3 0,292.63 0,412 42.38,412 249.72,412 288.81,412 288.81,334.02 288.81,188.24 
				288.81,149.1 288.81,0 			"/>
		</defs>
		<clipPath id="SVGID_2_">
			<use xlink:href="#SVGID_5_"  style="overflow:visible;"/>
		</clipPath>
		<g class="st3">
			<g>
				<line class="st38" x1="96" y1="190.18" x2="88.03" y2="189.1"/>
				<line class="st38" x1="58.6" y1="231.3" x2="50.62" y2="230.22"/>
				<line class="st38" x1="70.94" y1="192.32" x2="68.18" y2="200.29"/>
				<line class="st38" x1="66.01" y1="243.63" x2="70.35" y2="236.49"/>
				<line class="st38" x1="57.02" y1="257.06" x2="50.86" y2="251.61"/>
				<line class="st38" x1="97.78" y1="251.92" x2="91.17" y2="256.75"/>
				<line class="st38" x1="43.17" y1="237.9" x2="38.13" y2="231.3"/>
				<line class="st38" x1="25.56" y1="255.72" x2="29.13" y2="248.12"/>
				<line class="st38" x1="27.03" y1="225.98" x2="31.23" y2="218.75"/>
				<line class="st38" x1="38.74" y1="259.57" x2="44.08" y2="265.91"/>
				<line class="st38" x1="90.94" y1="210.17" x2="98.01" y2="206.13"/>
				<line class="st38" x1="102.67" y1="234.44" x2="100.15" y2="226.39"/>
				<line class="st38" x1="79.43" y1="259.74" x2="76.9" y2="251.69"/>
				<line class="st38" x1="51.89" y1="216.31" x2="49.36" y2="208.26"/>
				<line class="st38" x1="24.06" y1="183.63" x2="30.63" y2="178.75"/>
				<line class="st38" x1="80.12" y1="196.64" x2="84.22" y2="203.93"/>
				<line class="st38" x1="31.89" y1="164.03" x2="29.37" y2="155.98"/>
				<line class="st38" x1="23.94" y1="274.78" x2="30.76" y2="270.29"/>
				<line class="st38" x1="86.18" y1="230.76" x2="78.16" y2="230.06"/>
				<line class="st38" x1="74.53" y1="212.29" x2="67.35" y2="216.1"/>
				<line class="st38" x1="34.86" y1="207.06" x2="27.07" y2="204.96"/>
				<line class="st38" x1="55.09" y1="190.15" x2="54.61" y2="181.69"/>
				<line class="st38" x1="37.54" y1="195.01" x2="43.76" y2="189.64"/>
				<line class="st38" x1="49.55" y1="148.3" x2="41.54" y2="147.6"/>
				<line class="st38" x1="49.06" y1="165.76" x2="45.54" y2="173.38"/>
				<line class="st38" x1="32.46" y1="139.38" x2="25.53" y2="143.68"/>
				<line class="st38" x1="73.57" y1="177.05" x2="65.55" y2="176.55"/>
				<line class="st38" x1="49.26" y1="139.15" x2="49.47" y2="130.68"/>
				<line class="st38" x1="64.07" y1="269.68" x2="67.73" y2="262.13"/>
			</g>
			<g>
				<g>
					<g>
						<line class="st39" x1="190.19" y1="134.01" x2="190.19" y2="134.01"/>
						<line class="st40" x1="181.21" y1="134.01" x2="149.77" y2="134.01"/>
						<line class="st39" x1="145.28" y1="134.01" x2="145.28" y2="134.01"/>
					</g>
				</g>
				<g>
					<g>
						<line class="st39" x1="190.19" y1="148.66" x2="190.19" y2="148.66"/>
						<line class="st40" x1="181.21" y1="148.66" x2="149.77" y2="148.66"/>
						<line class="st39" x1="145.28" y1="148.66" x2="145.28" y2="148.66"/>
					</g>
				</g>
				<g>
					<g>
						<line class="st39" x1="190.19" y1="177.95" x2="190.19" y2="177.95"/>
						<line class="st40" x1="181.21" y1="177.95" x2="149.77" y2="177.95"/>
						<line class="st39" x1="145.28" y1="177.95" x2="145.28" y2="177.95"/>
					</g>
				</g>
				<g>
					<g>
						<line class="st39" x1="190.19" y1="163.31" x2="190.19" y2="163.31"/>
						<line class="st40" x1="181.21" y1="163.31" x2="149.77" y2="163.31"/>
						<line class="st39" x1="145.28" y1="163.31" x2="145.28" y2="163.31"/>
					</g>
				</g>
			</g>
			<g>
				<polyline class="st41" points="102.7,320.66 108.53,324.83 114.34,320.64 120.16,324.81 125.97,320.63 131.8,324.8 
					137.61,320.61 143.44,324.78 149.25,320.59 155.08,324.76 160.9,320.58 166.73,324.75 				"/>
			</g>
			<path class="st18" d="M59.42,363.89l-8.73-18.55c-0.4-0.85-1.58-0.92-2.08-0.13l-10.87,17.24c-0.48,0.76,0.03,1.76,0.92,1.82
				l19.6,1.3C59.17,365.63,59.81,364.7,59.42,363.89z"/>
			<path class="st2" d="M153.21,301.04l7.11-27.99c0.22-0.88-0.59-1.68-1.47-1.43l-26.54,7.5c-0.86,0.24-1.15,1.31-0.54,1.96
				l19.43,20.49C151.84,302.25,152.98,301.95,153.21,301.04z"/>
			<g>
				<path class="st42" d="M90.9,94.17c2.06,5.11-5.69,8.24-3.63,13.35c2.06,5.11,9.81,1.99,11.87,7.1
					c2.06,5.11-5.69,8.24-3.63,13.35c2.06,5.11,9.81,1.99,11.87,7.1c2.06,5.11-5.69,8.24-3.63,13.35c2.06,5.11,9.81,1.99,11.87,7.1
					c2.06,5.12-5.69,8.24-3.62,13.36c2.06,5.12,9.81,1.99,11.88,7.11"/>
			</g>
			<ellipse class="st28" cx="47.3" cy="362.12" rx="47.3" ry="49.88"/>
			<ellipse class="st43" cx="78.85" cy="148.66" rx="5.37" ry="5.67"/>
			<ellipse class="st2" cx="122.86" cy="366.05" rx="7.93" ry="8.36"/>
			<g>
				<line class="st44" x1="164.06" y1="0" x2="288.81" y2="131.55"/>
				<line class="st44" x1="157.45" y1="6.97" x2="282.2" y2="138.52"/>
				<line class="st44" x1="150.84" y1="13.95" x2="275.59" y2="145.49"/>
				<line class="st44" x1="144.22" y1="20.92" x2="268.97" y2="152.46"/>
				<line class="st44" x1="137.61" y1="27.89" x2="262.36" y2="159.44"/>
				<line class="st44" x1="131" y1="34.86" x2="255.75" y2="166.41"/>
				<line class="st44" x1="124.39" y1="41.84" x2="249.14" y2="173.38"/>
			</g>
			<ellipse class="st45" cx="196.76" cy="274.78" rx="19.17" ry="20.22"/>
			<path class="st46" d="M66.94,88.4c-5.33,6.08-14.32,6.45-20.09,0.83c-5.76-5.62-6.11-15.1-0.78-21.18"/>
			<path class="st47" d="M195,208.11c-2.42-7.87,1.67-16.33,9.14-18.88c7.47-2.55,15.48,1.76,17.91,9.63"/>
			<g>
				<g>
					<g>
						<g>
							<line class="st48" x1="166.34" y1="364.44" x2="166.34" y2="364.44"/>
							<line class="st49" x1="173.16" y1="357.18" x2="190.22" y2="339.04"/>
							<line class="st48" x1="193.63" y1="335.41" x2="193.63" y2="335.41"/>
						</g>
					</g>
				</g>
				<g>
					<g>
						<g>
							<line class="st48" x1="173.99" y1="372.5" x2="173.99" y2="372.5"/>
							<line class="st50" x1="180.81" y1="365.24" x2="197.86" y2="347.1"/>
							<line class="st48" x1="201.27" y1="343.47" x2="201.27" y2="343.47"/>
						</g>
					</g>
				</g>
				<g>
					<g>
						<g>
							<line class="st48" x1="158.7" y1="356.37" x2="158.7" y2="356.37"/>
							<line class="st50" x1="165.52" y1="349.12" x2="182.57" y2="330.97"/>
							<line class="st48" x1="185.98" y1="327.34" x2="185.98" y2="327.34"/>
						</g>
					</g>
				</g>
			</g>
			<g>
				<g>
					<g>
						<line class="st51" x1="101.73" y1="279.06" x2="101.73" y2="279.06"/>
						<line class="st52" x1="94.88" y1="286.28" x2="77.75" y2="304.34"/>
						<line class="st51" x1="74.33" y1="307.96" x2="74.33" y2="307.96"/>
					</g>
				</g>
			</g>
			<path class="st17" d="M128.05,106.26l22.75-6.43c1.07-0.3,1.44-1.63,0.67-2.44l-16.65-17.56c-0.8-0.84-2.22-0.47-2.5,0.65
				l-6.1,23.99C125.94,105.58,126.96,106.57,128.05,106.26z"/>
			<ellipse class="st53" cx="40.65" cy="130.68" rx="14.21" ry="14.99"/>
		</g>
	</g>
</g>
</svg>
