<?xml version="1.0" encoding="utf-8"?>
<!-- Generator: Adobe Illustrator 25.2.0, SVG Export Plug-In . SVG Version: 6.00 Build 0)  -->
<svg version="1.1" id="Calque_1" xmlns="http://www.w3.org/2000/svg" xmlns:xlink="http://www.w3.org/1999/xlink" x="0px" y="0px"
	 viewBox="0 0 298.68 420.94" style="enable-background:new 0 0 298.68 420.94;" xml:space="preserve">
<style type="text/css">
	.st0{fill:#6DC5CB;}
	.st1{fill:#F6B1B5;}
	.st2{fill:#0097DA;}
	.st3{clip-path:url(#SVGID_2_);}
	.st4{fill:none;stroke:#0097DA;stroke-width:2.0892;stroke-miterlimit:10;}
	.st5{fill:none;stroke:#0097DA;stroke-width:3.1338;stroke-miterlimit:10;}
	.st6{fill:none;stroke:#352E39;stroke-width:4.1784;stroke-linecap:round;stroke-miterlimit:10;}
	.st7{fill:none;stroke:#352E39;stroke-width:4.1784;stroke-linecap:round;stroke-miterlimit:10;stroke-dasharray:0,11.4843;}
	.st8{fill:none;stroke:#352E39;stroke-width:5.223;stroke-linecap:round;stroke-miterlimit:10;}
	.st9{fill:none;stroke:#352E39;stroke-width:5.223;stroke-linecap:round;stroke-miterlimit:10;stroke-dasharray:0,10.5198;}
	.st10{fill:none;stroke:#F6B1B5;stroke-width:4.1784;stroke-linecap:round;stroke-miterlimit:10;}
	.st11{fill:none;stroke:#FFFFFF;stroke-width:2.0892;stroke-miterlimit:10;}
	.st12{fill:none;stroke:#EEBC2E;stroke-width:3.1338;stroke-miterlimit:10;}
	.st13{fill:none;stroke:#FFFFFF;stroke-width:3.1338;stroke-miterlimit:10;}
	.st14{fill:none;stroke:#F6B1B5;stroke-width:4.1784;stroke-miterlimit:10;}
	.st15{fill:none;stroke:#FFFFFF;stroke-width:3.1338;stroke-linejoin:round;stroke-miterlimit:10;}
	.st16{fill:none;stroke:#FFFFFF;stroke-width:4.1784;stroke-miterlimit:10;}
	.st17{fill:#EEBC2E;}
	.st18{fill:#FFFFFF;}
	.st19{fill:#C8BE9D;}
	.st20{fill:#F1893D;}
	.st21{clip-path:url(#SVGID_4_);}
	.st22{fill:none;stroke:#F1893D;stroke-width:6.2676;stroke-linecap:round;stroke-miterlimit:10;}
	.st23{fill:none;stroke:#F1893D;stroke-width:6.2676;stroke-linecap:round;stroke-miterlimit:10;stroke-dasharray:0,10.4299;}
	.st24{fill:none;stroke:#EEBC2E;stroke-width:5.0087;stroke-miterlimit:10;}
	.st25{fill:none;stroke:#FFFFFF;stroke-width:5.1631;stroke-miterlimit:10;}
	.st26{fill:none;stroke:#0097DA;stroke-width:4.3899;stroke-linecap:round;stroke-miterlimit:10;}
	.st27{fill:none;stroke:#0097DA;stroke-width:4.3899;stroke-linecap:round;stroke-miterlimit:10;stroke-dasharray:0,12.7054;}
	.st28{fill:none;stroke:#FFFFFF;stroke-width:4.2271;stroke-miterlimit:10;}
	.st29{fill:none;stroke:#352E39;stroke-width:3.1338;stroke-miterlimit:10;}
	.st30{fill:none;stroke:#352E39;stroke-width:2.6115;stroke-miterlimit:10;}
	.st31{fill:none;stroke:#35313B;stroke-width:4.1784;stroke-miterlimit:10;}
	.st32{fill:none;stroke:#352E39;stroke-width:4.1784;stroke-miterlimit:10;}
	.st33{fill:none;stroke:#00A9B9;stroke-width:4.1784;stroke-linecap:round;stroke-miterlimit:10;}
	.st34{fill:none;stroke:#00A9B9;stroke-width:2;stroke-miterlimit:10;}
	.st35{fill:#C1E5F8;}
	.st36{fill:#00A9B9;}
	.st37{clip-path:url(#SVGID_6_);}
	.st38{fill:none;stroke:#F6B1B5;stroke-width:2.6115;stroke-miterlimit:10;}
	.st39{fill:none;stroke:#FFFFFF;stroke-width:4.7007;stroke-linecap:round;stroke-miterlimit:10;}
	.st40{fill:none;stroke:#FFFFFF;stroke-width:4.7007;stroke-linecap:round;stroke-miterlimit:10;stroke-dasharray:0,10.3315;}
	.st41{fill:none;stroke:#35313B;stroke-width:3.1338;stroke-linejoin:round;stroke-miterlimit:10;}
	.st42{fill:none;stroke:#0097DA;stroke-width:4.1784;stroke-linecap:round;stroke-miterlimit:10;}
	.st43{fill:#352E39;}
	.st44{fill:none;stroke:#00A9B9;stroke-width:4.1784;stroke-miterlimit:10;}
	.st45{fill:none;stroke:#F1893D;stroke-width:4.2271;stroke-miterlimit:10;}
	.st46{fill:none;stroke:#35313B;stroke-width:3.1338;stroke-miterlimit:10;}
	.st47{fill:none;stroke:#F1893D;stroke-width:3.1338;stroke-miterlimit:10;}
	.st48{fill:none;stroke:#EEBC2E;stroke-width:5;stroke-linecap:round;stroke-miterlimit:10;}
	.st49{fill:none;stroke:#EEBC2E;stroke-width:5;stroke-linecap:round;stroke-miterlimit:10;stroke-dasharray:0,10.5642;}
	.st50{fill:none;stroke:#35313B;stroke-width:5.223;stroke-linecap:round;stroke-miterlimit:10;}
	.st51{fill:none;stroke:#35313B;stroke-width:5.223;stroke-linecap:round;stroke-miterlimit:10;stroke-dasharray:0,10.5654;}
	.st52{fill:none;stroke:#FFFFFF;stroke-width:4;stroke-miterlimit:10;}
</style>
<g>
	<g>
		<rect x="-296.16" y="0" class="st0" width="296.17" height="420.94"/>
	</g>
	<g>
		<defs>
			<rect id="SVGID_1_" x="-296.16" y="0" width="296.17" height="420.94"/>
		</defs>
		<clipPath id="SVGID_2_">
			<use xlink:href="#SVGID_1_"  style="overflow:visible;"/>
		</clipPath>
		<g class="st3">
			<g>
				<line class="st11" x1="-149.84" y1="434.8" x2="20.89" y2="266.95"/>
				<line class="st11" x1="-143.05" y1="441.47" x2="27.67" y2="273.63"/>
				<line class="st11" x1="-136.26" y1="448.15" x2="34.46" y2="280.3"/>
				<line class="st11" x1="-129.48" y1="454.82" x2="41.25" y2="286.97"/>
				<line class="st11" x1="-122.69" y1="461.49" x2="48.04" y2="293.64"/>
				<line class="st11" x1="-115.9" y1="468.16" x2="54.82" y2="300.32"/>
				<line class="st11" x1="-109.12" y1="474.84" x2="61.61" y2="306.99"/>
				<line class="st11" x1="-102.33" y1="481.51" x2="68.4" y2="313.66"/>
				<line class="st11" x1="-95.54" y1="488.18" x2="75.18" y2="320.33"/>
			</g>
		</g>
	</g>
</g>
<g>
	<g>
		<g>
			<rect x="0.01" class="st19" width="298.68" height="420.94"/>
			<g>
				<path class="st20" d="M51.37,331.55c1.29,25.44,25.69,46.59,23.65,71.98c-0.51,6.44-2.74,12.27-6.2,17.41H0.01V209.29
					c6.53,6.43,16.14,8.67,24.57,12.55c24.17,11.07,39.45,38.22,36.04,64.05C58.56,301.34,50.58,316,51.37,331.55z"/>
				<path class="st20" d="M298.68,0v197.76c-6.86-12.49-15.21-24.18-24.85-34.78c-7.81-8.57-16.5-16.5-22.58-26.31
					c-6.08-9.8-9.24-22.18-4.85-32.79c5.36-13.02,21.14-21.87,21.11-35.91c-0.02-13.32-15.72-22.36-29.29-20.9
					c-13.59,1.46-25.08,10.06-35.79,18.32c-16.72,12.88-33.42,25.76-50.12,38.66c-13.76,10.6-28.85,21.72-46.38,22.21
					c-25.83,0.71-47.44-24.71-46.59-49.9c0.84-25.18,20.05-47.44,43.67-57.69c10.75-4.66,22.5-7.31,32.33-13.61
					c2.24-1.43,4.38-3.14,6.29-5.06H298.68z"/>
				<path class="st2" d="M279.86,313.46c6.82-0.05,13.26-2.35,18.82-6.11v113.59H123.5c-6.26-7.08-9.94-16.09-9.11-27.6
					c1.12-15.63,14.19-29.68,30.04-32.28c14.52-2.37,30.6,3.77,43.56-3.04c20.02-10.54,17.92-44.16,38.98-52.57
					C243.78,298.74,261.68,313.63,279.86,313.46z"/>
			</g>
		</g>
		<g>
			<defs>
				<rect id="SVGID_3_" x="0.01" width="298.68" height="420.94"/>
			</defs>
			<clipPath id="SVGID_4_">
				<use xlink:href="#SVGID_3_"  style="overflow:visible;"/>
			</clipPath>
			<g class="st21">
				<g>
					<g>
						<g>
							<g>
								<line class="st22" x1="118.39" y1="319.97" x2="118.39" y2="319.97"/>
								<line class="st23" x1="118.34" y1="309.54" x2="118.17" y2="273.04"/>
								<line class="st22" x1="118.15" y1="267.82" x2="118.15" y2="267.82"/>
							</g>
						</g>
					</g>
					<g>
						<g>
							<g>
								<line class="st22" x1="102.69" y1="319.97" x2="102.69" y2="319.97"/>
								<line class="st23" x1="102.65" y1="309.54" x2="102.48" y2="273.04"/>
								<line class="st22" x1="102.45" y1="267.82" x2="102.45" y2="267.82"/>
							</g>
						</g>
					</g>
				</g>
				<g>
					<line class="st24" x1="252.69" y1="353.3" x2="309.04" y2="353.3"/>
					<line class="st24" x1="252.69" y1="365.15" x2="309.04" y2="365.15"/>
					<line class="st24" x1="252.69" y1="377" x2="309.04" y2="377"/>
					<line class="st24" x1="252.69" y1="388.85" x2="309.04" y2="388.85"/>
					<line class="st24" x1="252.69" y1="400.7" x2="309.04" y2="400.7"/>
					<line class="st24" x1="252.69" y1="412.55" x2="309.04" y2="412.55"/>
				</g>
				<g>
					<line class="st25" x1="120.48" y1="-7.17" x2="-2.86" y2="112.99"/>
					<line class="st25" x1="111.01" y1="-16.4" x2="-12.33" y2="103.75"/>
					<line class="st25" x1="101.54" y1="-25.64" x2="-21.8" y2="94.51"/>
					<line class="st25" x1="92.08" y1="-34.88" x2="-31.26" y2="85.28"/>
					<line class="st25" x1="82.61" y1="-44.12" x2="-40.73" y2="76.04"/>
					<line class="st25" x1="73.14" y1="-53.35" x2="-50.2" y2="66.8"/>
				</g>
				<g>
					<g>
						<g>
							<line class="st26" x1="223.06" y1="99.73" x2="223.06" y2="99.73"/>
							<line class="st27" x1="210.35" y1="99.73" x2="140.47" y2="99.73"/>
							<line class="st26" x1="134.12" y1="99.73" x2="134.12" y2="99.73"/>
						</g>
					</g>
					<g>
						<g>
							<line class="st26" x1="223.06" y1="114.51" x2="223.06" y2="114.51"/>
							<line class="st27" x1="210.35" y1="114.51" x2="140.47" y2="114.51"/>
							<line class="st26" x1="134.12" y1="114.51" x2="134.12" y2="114.51"/>
						</g>
					</g>
					<g>
						<g>
							<line class="st26" x1="223.06" y1="129.28" x2="223.06" y2="129.28"/>
							<line class="st27" x1="210.35" y1="129.28" x2="140.47" y2="129.28"/>
							<line class="st26" x1="134.12" y1="129.28" x2="134.12" y2="129.28"/>
						</g>
					</g>
				</g>
				<ellipse class="st28" cx="180.11" cy="289.86" rx="26.46" ry="25.8"/>
				<ellipse class="st29" cx="281.82" cy="43.95" rx="65.28" ry="63.64"/>
				<path class="st2" d="M48.85,350.02l35.62-1.42c0.92-0.04,1.45-1.06,0.95-1.83l-19.07-29.36c-0.49-0.76-1.61-0.71-2.04,0.08
					l-16.54,30.78C47.33,349.08,47.94,350.06,48.85,350.02z"/>
				<path class="st1" d="M149.58,72.5L132.12,38.2c-0.41-0.8-1.53-0.87-2.04-0.13l-21.75,31.9c-0.52,0.76-0.01,1.79,0.91,1.85
					l39.21,2.41C149.36,74.28,149.99,73.32,149.58,72.5z"/>
				<path class="st18" d="M273.37,156.05l-29.6,7.73c-0.89,0.23-1.19,1.35-0.53,2l21.67,21.13c0.65,0.63,1.73,0.34,1.97-0.53
					l7.93-28.86C275.06,156.64,274.26,155.82,273.37,156.05z"/>
				<g>
					<line class="st30" x1="22.25" y1="257.16" x2="11.25" y2="255.78"/>
					<line class="st30" x1="41.33" y1="329.06" x2="30.32" y2="327.69"/>
					<line class="st30" x1="49.65" y1="286.93" x2="45.84" y2="297.09"/>
					<line class="st30" x1="50.56" y1="370.94" x2="56.54" y2="361.82"/>
					<line class="st30" x1="41.81" y1="376.27" x2="33.32" y2="369.32"/>
					<line class="st30" x1="61.54" y1="383.53" x2="52.42" y2="389.69"/>
					<line class="st30" x1="23.32" y1="374.8" x2="16.36" y2="366.38"/>
					<line class="st30" x1="5.98" y1="398.25" x2="10.9" y2="388.55"/>
					<line class="st30" x1="10.96" y1="355.8" x2="16.75" y2="346.57"/>
					<line class="st30" x1="30.73" y1="389.6" x2="38.1" y2="397.69"/>
					<line class="st30" x1="25.85" y1="355.84" x2="35.6" y2="350.68"/>
					<line class="st30" x1="19.84" y1="336.62" x2="16.36" y2="326.35"/>
					<line class="st30" x1="19.84" y1="310.27" x2="16.36" y2="300"/>
					<line class="st30" x1="6.43" y1="296.09" x2="15.5" y2="289.86"/>
					<line class="st30" x1="42.45" y1="251.13" x2="48.12" y2="260.43"/>
					<line class="st30" x1="15.6" y1="278.85" x2="12.12" y2="268.58"/>
					<line class="st30" x1="25.52" y1="414.69" x2="19.02" y2="405.92"/>
					<line class="st30" x1="67.6" y1="407.39" x2="56.54" y2="406.5"/>
					<line class="st30" x1="41.31" y1="310.27" x2="31.4" y2="315.14"/>
					<line class="st30" x1="14.28" y1="316.83" x2="3.53" y2="314.16"/>
					<line class="st30" x1="29.69" y1="293.9" x2="29.03" y2="283.1"/>
					<line class="st30" x1="26.03" y1="274.72" x2="34.61" y2="267.87"/>
					<line class="st30" x1="27.8" y1="243.12" x2="16.74" y2="242.23"/>
					<line class="st30" x1="38.79" y1="239.48" x2="33.93" y2="249.21"/>
					<line class="st30" x1="15.75" y1="227.73" x2="6.18" y2="233.22"/>
					<line class="st30" x1="54.91" y1="266.87" x2="46.32" y2="273.72"/>
					<line class="st30" x1="42.75" y1="409.99" x2="47.81" y2="400.36"/>
				</g>
				<path class="st31" d="M152.64,379.23c-7.36,7.75-19.77,8.23-27.72,1.06c-7.95-7.17-8.44-19.27-1.08-27.02"/>
				<g>
					<polyline class="st15" points="216.65,370.44 226.41,362.99 224.54,350.86 234.3,343.42 232.44,331.29 242.19,323.85 
						240.33,311.71 250.09,304.27 248.22,292.14 257.99,284.68 256.12,272.55 					"/>
				</g>
				<path class="st32" d="M75.59,85.97c8.92,6,11.16,17.91,5,26.6c-6.15,8.69-18.37,10.88-27.29,4.88"/>
				<g>
					<path class="st33" d="M27.85,157.01c9.7,0,9.7,6.27,19.39,6.27c9.7,0,9.7-6.27,19.39-6.27c9.7,0,9.7,6.27,19.39,6.27
						c9.7,0,9.7-6.27,19.39-6.27c9.7,0,9.7,6.27,19.4,6.27s9.7-6.27,19.4-6.27"/>
				</g>
				<ellipse class="st18" cx="189.53" cy="397.69" rx="10.94" ry="10.66"/>
				<path class="st2" d="M180.11,25.95c0,3.99-3.32,7.23-7.42,7.23c-4.1,0-7.42-3.24-7.42-7.23s3.32-7.23,7.42-7.23
					C176.79,18.72,180.11,21.96,180.11,25.95z"/>
				<path class="st34" d="M286.9,31.43c0,5.62-4.67,10.17-10.43,10.17s-10.43-4.55-10.43-10.17s4.67-10.17,10.43-10.17
					S286.9,25.81,286.9,31.43z"/>
			</g>
		</g>
	</g>
</g>
<g>
	<g>
		<defs>
			<polygon id="SVGID_5_" points="0.01,420.94 0.01,450.92 0.01,510.13 0.01,719.93 0.01,841.89 43.84,841.89 258.26,841.89 
				298.68,841.89 298.68,762.22 298.68,613.27 298.68,573.28 298.68,420.94 			"/>
		</defs>
		<clipPath id="SVGID_6_">
			<use xlink:href="#SVGID_5_"  style="overflow:visible;"/>
		</clipPath>
		<g class="st37">
			<g>
				<line class="st44" x1="203.24" y1="347.68" x2="375.41" y2="515.53"/>
				<line class="st44" x1="194.11" y1="356.58" x2="366.29" y2="524.43"/>
				<line class="st44" x1="184.99" y1="365.47" x2="357.16" y2="533.32"/>
				<line class="st44" x1="175.86" y1="374.37" x2="348.03" y2="542.22"/>
				<line class="st44" x1="166.73" y1="383.27" x2="338.91" y2="551.12"/>
				<line class="st44" x1="157.61" y1="392.16" x2="329.78" y2="560.01"/>
				<line class="st44" x1="148.48" y1="401.06" x2="320.66" y2="568.91"/>
			</g>
		</g>
	</g>
</g>
</svg>
