<?xml version="1.0" encoding="utf-8"?>
<!-- Generator: Adobe Illustrator 25.2.0, SVG Export Plug-In . SVG Version: 6.00 Build 0)  -->
<svg version="1.1" id="Calque_1" xmlns="http://www.w3.org/2000/svg" xmlns:xlink="http://www.w3.org/1999/xlink" x="0px" y="0px"
	 viewBox="0 0 298.68 420.94" style="enable-background:new 0 0 298.68 420.94;" xml:space="preserve">
<style type="text/css">
	.st0{fill:#6DC5CB;}
	.st1{fill:#F6B1B5;}
	.st2{fill:#0097DA;}
	.st3{clip-path:url(#SVGID_2_);}
	.st4{fill:none;stroke:#0097DA;stroke-width:2.0892;stroke-miterlimit:10;}
	.st5{fill:none;stroke:#0097DA;stroke-width:3.1338;stroke-miterlimit:10;}
	.st6{fill:none;stroke:#352E39;stroke-width:4.1784;stroke-linecap:round;stroke-miterlimit:10;}
	.st7{fill:none;stroke:#352E39;stroke-width:4.1784;stroke-linecap:round;stroke-miterlimit:10;stroke-dasharray:0,11.4843;}
	.st8{fill:none;stroke:#352E39;stroke-width:5.223;stroke-linecap:round;stroke-miterlimit:10;}
	.st9{fill:none;stroke:#352E39;stroke-width:5.223;stroke-linecap:round;stroke-miterlimit:10;stroke-dasharray:0,10.5198;}
	.st10{fill:none;stroke:#F6B1B5;stroke-width:4.1784;stroke-linecap:round;stroke-miterlimit:10;}
	.st11{fill:none;stroke:#FFFFFF;stroke-width:2.0892;stroke-miterlimit:10;}
	.st12{fill:none;stroke:#EEBC2E;stroke-width:3.1338;stroke-miterlimit:10;}
	.st13{fill:none;stroke:#FFFFFF;stroke-width:3.1338;stroke-miterlimit:10;}
	.st14{fill:none;stroke:#F6B1B5;stroke-width:4.1784;stroke-miterlimit:10;}
	.st15{fill:none;stroke:#FFFFFF;stroke-width:3.1338;stroke-linejoin:round;stroke-miterlimit:10;}
	.st16{fill:none;stroke:#FFFFFF;stroke-width:4.1784;stroke-miterlimit:10;}
	.st17{fill:#EEBC2E;}
	.st18{fill:#FFFFFF;}
	.st19{fill:#C8BE9D;}
	.st20{fill:#F1893D;}
	.st21{clip-path:url(#SVGID_4_);}
	.st22{fill:none;stroke:#F1893D;stroke-width:6.2676;stroke-linecap:round;stroke-miterlimit:10;}
	.st23{fill:none;stroke:#F1893D;stroke-width:6.2676;stroke-linecap:round;stroke-miterlimit:10;stroke-dasharray:0,10.4299;}
	.st24{fill:none;stroke:#EEBC2E;stroke-width:5.0087;stroke-miterlimit:10;}
	.st25{fill:none;stroke:#FFFFFF;stroke-width:5.1631;stroke-miterlimit:10;}
	.st26{fill:none;stroke:#0097DA;stroke-width:4.3899;stroke-linecap:round;stroke-miterlimit:10;}
	.st27{fill:none;stroke:#0097DA;stroke-width:4.3899;stroke-linecap:round;stroke-miterlimit:10;stroke-dasharray:0,12.7054;}
	.st28{fill:none;stroke:#FFFFFF;stroke-width:4.2271;stroke-miterlimit:10;}
	.st29{fill:none;stroke:#352E39;stroke-width:3.1338;stroke-miterlimit:10;}
	.st30{fill:none;stroke:#352E39;stroke-width:2.6115;stroke-miterlimit:10;}
	.st31{fill:none;stroke:#35313B;stroke-width:4.1784;stroke-miterlimit:10;}
	.st32{fill:none;stroke:#352E39;stroke-width:4.1784;stroke-miterlimit:10;}
	.st33{fill:none;stroke:#00A9B9;stroke-width:4.1784;stroke-linecap:round;stroke-miterlimit:10;}
	.st34{fill:none;stroke:#00A9B9;stroke-width:2;stroke-miterlimit:10;}
	.st35{fill:#C1E5F8;}
	.st36{fill:#00A9B9;}
	.st37{clip-path:url(#SVGID_6_);}
	.st38{fill:none;stroke:#F6B1B5;stroke-width:2.6115;stroke-miterlimit:10;}
	.st39{fill:none;stroke:#FFFFFF;stroke-width:4.7007;stroke-linecap:round;stroke-miterlimit:10;}
	.st40{fill:none;stroke:#FFFFFF;stroke-width:4.7007;stroke-linecap:round;stroke-miterlimit:10;stroke-dasharray:0,10.3315;}
	.st41{fill:none;stroke:#35313B;stroke-width:3.1338;stroke-linejoin:round;stroke-miterlimit:10;}
	.st42{fill:none;stroke:#0097DA;stroke-width:4.1784;stroke-linecap:round;stroke-miterlimit:10;}
	.st43{fill:#352E39;}
	.st44{fill:none;stroke:#00A9B9;stroke-width:4.1784;stroke-miterlimit:10;}
	.st45{fill:none;stroke:#F1893D;stroke-width:4.2271;stroke-miterlimit:10;}
	.st46{fill:none;stroke:#35313B;stroke-width:3.1338;stroke-miterlimit:10;}
	.st47{fill:none;stroke:#F1893D;stroke-width:3.1338;stroke-miterlimit:10;}
	.st48{fill:none;stroke:#EEBC2E;stroke-width:5;stroke-linecap:round;stroke-miterlimit:10;}
	.st49{fill:none;stroke:#EEBC2E;stroke-width:5;stroke-linecap:round;stroke-miterlimit:10;stroke-dasharray:0,10.5642;}
	.st50{fill:none;stroke:#35313B;stroke-width:5.223;stroke-linecap:round;stroke-miterlimit:10;}
	.st51{fill:none;stroke:#35313B;stroke-width:5.223;stroke-linecap:round;stroke-miterlimit:10;stroke-dasharray:0,10.5654;}
	.st52{fill:none;stroke:#FFFFFF;stroke-width:4;stroke-miterlimit:10;}
</style>
<g>
	<g>
		<defs>
			<rect id="SVGID_1_" x="-296.16" y="-420.94" width="296.17" height="420.94"/>
		</defs>
		<clipPath id="SVGID_2_">
			<use xlink:href="#SVGID_1_"  style="overflow:visible;"/>
		</clipPath>
		<g class="st3">
			<g>
				<line class="st11" x1="-149.84" y1="13.86" x2="20.89" y2="-153.99"/>
				<line class="st11" x1="-143.05" y1="20.53" x2="27.67" y2="-147.32"/>
				<line class="st11" x1="-136.26" y1="27.2" x2="34.46" y2="-140.65"/>
				<line class="st11" x1="-129.48" y1="33.87" x2="41.25" y2="-133.97"/>
				<line class="st11" x1="-122.69" y1="40.55" x2="48.04" y2="-127.3"/>
				<line class="st11" x1="-115.9" y1="47.22" x2="54.82" y2="-120.63"/>
				<line class="st11" x1="-109.12" y1="53.89" x2="61.61" y2="-113.96"/>
				<line class="st11" x1="-102.33" y1="60.56" x2="68.4" y2="-107.28"/>
				<line class="st11" x1="-95.54" y1="67.24" x2="75.18" y2="-100.61"/>
			</g>
		</g>
	</g>
</g>
<g>
	<g>
		<polygon class="st35" points="0.01,0 0.01,29.98 0.01,89.19 0.01,298.99 0.01,420.94 43.84,420.94 258.26,420.94 298.68,420.94 
			298.68,341.28 298.68,192.33 298.68,152.33 298.68,0 		"/>
		<g>
			<path class="st20" d="M298.68,0v152.34c-9.44-2.67-19.35-4.54-26.22-11.13c-9.6-9.2-10.44-25.17-21.16-33.13
				c-13.37-9.92-32.1-1.53-48.74,0.76c-24.34,3.37-50.19-9.02-62.31-29.88c-8.27-14.23-11.16-32.41-24.63-42.18
				c-15.05-10.89-36.16-6.27-54.1-0.94c-17.93,5.33-38.69,10.57-54.33,0.5c-2.77-1.78-5.16-3.93-7.18-6.35V0H298.68z"/>
			<path class="st20" d="M133.85,213.5c-2.21,32.05-29.31,60.83-61.87,65.73c-15.69,2.37-32.11-0.24-47.32,4.22
				c-9.66,2.84-17.93,8.37-24.65,15.54V89.19c3.6,1.2,7.39,1.9,11.34,1.96c11.31,0.18,22.34-4.59,33.64-3.84
				c11.3,0.76,23.34,11.64,18.35,21.54c-1.75,3.46-5.22,5.92-6.65,9.51c-2.29,5.79,1.65,12.41,7,15.75
				c5.34,3.36,11.81,4.39,17.92,6.15C113.19,149.39,136.07,181.45,133.85,213.5z"/>
			<path class="st20" d="M258.26,420.94H43.84c0.78-3.49,1.29-7.05,1.68-10.59c3.15-28.19,1.03-58.75,17.03-82.43
				c4-5.91,9.24-11.3,15.95-14c6.7-2.7,15.07-2.26,20.52,2.42c9.1,7.79,7.23,23.53,16.75,30.82c6.92,5.29,17.19,3.72,24.84-0.5
				c7.65-4.21,13.79-10.62,21.16-15.27c22.55-14.2,56.06-7.87,71.53,13.5c8.46,11.67,11.51,26.14,14.24,40.18
				C249.92,397.36,252.34,409.96,258.26,420.94z"/>
			<path class="st36" d="M298.68,192.33v148.95c-9.21-6.27-18.15-12.93-26.8-19.93c-18.03-14.61-35.31-31.56-43.03-53.15
				c-7.73-21.57-3.37-48.7,15.6-62.14c10.1-7.14,22.84-9.63,35.21-11.23C285.98,194.03,292.38,193.39,298.68,192.33z"/>
		</g>
	</g>
	<g>
		<defs>
			<polygon id="SVGID_5_" points="0.01,0 0.01,29.98 0.01,89.19 0.01,298.99 0.01,420.94 43.84,420.94 258.26,420.94 298.68,420.94 
				298.68,341.28 298.68,192.33 298.68,152.33 298.68,0 			"/>
		</defs>
		<clipPath id="SVGID_4_">
			<use xlink:href="#SVGID_5_"  style="overflow:visible;"/>
		</clipPath>
		<g class="st21">
			<g>
				<line class="st38" x1="109.31" y1="169.4" x2="98.3" y2="168.02"/>
				<line class="st38" x1="57.68" y1="221.87" x2="46.68" y2="220.5"/>
				<line class="st38" x1="74.72" y1="172.14" x2="70.91" y2="182.3"/>
				<line class="st38" x1="67.92" y1="237.6" x2="73.9" y2="228.49"/>
				<line class="st38" x1="55.5" y1="254.74" x2="47.01" y2="247.78"/>
				<line class="st38" x1="111.76" y1="248.18" x2="102.63" y2="254.34"/>
				<line class="st38" x1="36.39" y1="230.3" x2="29.43" y2="221.87"/>
				<line class="st38" x1="12.09" y1="253.02" x2="17.02" y2="243.33"/>
				<line class="st38" x1="14.12" y1="215.08" x2="19.91" y2="205.86"/>
				<line class="st38" x1="30.28" y1="257.94" x2="37.65" y2="266.03"/>
				<line class="st38" x1="102.32" y1="194.91" x2="112.07" y2="189.75"/>
				<line class="st38" x1="118.52" y1="225.87" x2="115.03" y2="215.6"/>
				<line class="st38" x1="86.43" y1="258.16" x2="82.95" y2="247.89"/>
				<line class="st38" x1="48.42" y1="202.75" x2="44.94" y2="192.47"/>
				<line class="st38" x1="10.02" y1="161.05" x2="19.09" y2="154.81"/>
				<line class="st38" x1="87.38" y1="177.65" x2="93.05" y2="186.95"/>
				<line class="st38" x1="20.83" y1="136.04" x2="17.34" y2="125.76"/>
				<line class="st38" x1="9.84" y1="277.34" x2="19.26" y2="271.62"/>
				<line class="st38" x1="95.75" y1="221.18" x2="84.69" y2="220.29"/>
				<line class="st38" x1="79.67" y1="197.61" x2="69.76" y2="202.47"/>
				<line class="st38" x1="24.92" y1="190.94" x2="14.17" y2="188.27"/>
				<line class="st38" x1="52.84" y1="169.36" x2="52.18" y2="158.57"/>
				<line class="st38" x1="28.62" y1="175.56" x2="37.21" y2="168.71"/>
				<line class="st38" x1="45.19" y1="115.96" x2="34.14" y2="115.07"/>
				<line class="st38" x1="44.52" y1="138.24" x2="39.66" y2="147.97"/>
				<line class="st38" x1="21.61" y1="104.58" x2="12.04" y2="110.06"/>
				<line class="st38" x1="78.35" y1="152.65" x2="67.27" y2="152.01"/>
				<line class="st38" x1="44.79" y1="104.29" x2="45.08" y2="93.47"/>
				<line class="st38" x1="65.23" y1="270.84" x2="70.29" y2="261.21"/>
			</g>
			<g>
				<g>
					<g>
						<line class="st39" x1="239.31" y1="97.73" x2="239.31" y2="97.73"/>
						<line class="st40" x1="228.98" y1="97.73" x2="182.48" y2="97.73"/>
						<line class="st39" x1="177.32" y1="97.73" x2="177.32" y2="97.73"/>
					</g>
				</g>
				<g>
					<g>
						<line class="st39" x1="239.31" y1="116.42" x2="239.31" y2="116.42"/>
						<line class="st40" x1="228.98" y1="116.42" x2="182.48" y2="116.42"/>
						<line class="st39" x1="177.32" y1="116.42" x2="177.32" y2="116.42"/>
					</g>
				</g>
				<g>
					<g>
						<line class="st39" x1="239.31" y1="153.8" x2="239.31" y2="153.8"/>
						<line class="st40" x1="228.98" y1="153.8" x2="182.48" y2="153.8"/>
						<line class="st39" x1="177.32" y1="153.8" x2="177.32" y2="153.8"/>
					</g>
				</g>
				<g>
					<g>
						<line class="st39" x1="239.31" y1="135.11" x2="239.31" y2="135.11"/>
						<line class="st40" x1="228.98" y1="135.11" x2="182.48" y2="135.11"/>
						<line class="st39" x1="177.32" y1="135.11" x2="177.32" y2="135.11"/>
					</g>
				</g>
			</g>
			<g>
				<polyline class="st41" points="118.56,336.46 126.59,340.63 134.62,336.44 142.66,340.61 150.68,336.42 158.72,340.59 
					166.74,336.4 174.78,340.57 182.81,336.38 190.85,340.55 198.88,336.36 206.92,340.53 				"/>
			</g>
			<path class="st18" d="M59.06,391.52l-12.65-24.86c-0.41-0.8-1.53-0.87-2.04-0.13l-15.76,23.11c-0.52,0.76-0.01,1.79,0.91,1.85
				l28.41,1.75C58.85,393.3,59.48,392.34,59.06,391.52z"/>
			<path class="st2" d="M188.06,311.58l10.17-37c0.24-0.88-0.56-1.69-1.44-1.46l-37.95,9.91c-0.89,0.23-1.19,1.35-0.53,2
				l27.78,27.08C186.73,312.75,187.82,312.45,188.06,311.58z"/>
			<g>
				<path class="st42" d="M100.75,47.21c2.85,6.52-4.81,9.86-1.97,16.39c2.85,6.52,10.51,3.18,13.35,9.71
					c2.84,6.52-4.82,9.86-1.97,16.39c2.85,6.52,10.51,3.18,13.35,9.71c2.85,6.53-4.81,9.87-1.97,16.39
					c2.85,6.52,10.51,3.18,13.35,9.71c2.85,6.53-4.81,9.87-1.96,16.4c2.85,6.53,10.51,3.19,13.35,9.72"/>
			</g>
			<ellipse class="st28" cx="42.09" cy="388.79" rx="65.29" ry="63.65"/>
			<ellipse class="st43" cx="85.63" cy="116.42" rx="7.42" ry="7.23"/>
			<ellipse class="st2" cx="146.38" cy="393.8" rx="10.94" ry="10.66"/>
			<g>
				<line class="st44" x1="203.24" y1="-73.27" x2="375.41" y2="94.58"/>
				<line class="st44" x1="194.11" y1="-64.37" x2="366.29" y2="103.48"/>
				<line class="st44" x1="184.99" y1="-55.47" x2="357.16" y2="112.38"/>
				<line class="st44" x1="175.86" y1="-46.58" x2="348.03" y2="121.27"/>
				<line class="st44" x1="166.73" y1="-37.68" x2="338.91" y2="130.17"/>
				<line class="st44" x1="157.61" y1="-28.78" x2="329.78" y2="139.07"/>
				<line class="st44" x1="148.48" y1="-19.88" x2="320.66" y2="147.97"/>
			</g>
			<ellipse class="st45" cx="248.37" cy="277.34" rx="26.46" ry="25.8"/>
			<path class="st46" d="M69.19,39.54c-7.36,7.75-19.77,8.23-27.72,1.06c-7.95-7.17-8.44-19.27-1.08-27.03"/>
			<path class="st47" d="M245.94,192.28c-3.34-10.05,2.3-20.83,12.61-24.09c10.31-3.26,21.37,2.25,24.71,12.29"/>
			<g>
				<g>
					<g>
						<g>
							<line class="st48" x1="206.39" y1="391.75" x2="206.39" y2="391.75"/>
							<line class="st49" x1="213.92" y1="384.34" x2="240.28" y2="358.41"/>
							<line class="st48" x1="244.04" y1="354.71" x2="244.04" y2="354.71"/>
						</g>
					</g>
				</g>
				<g>
					<g>
						<g>
							<line class="st48" x1="216.94" y1="402.04" x2="216.94" y2="402.04"/>
							<line class="st49" x1="224.47" y1="394.63" x2="250.83" y2="368.7"/>
							<line class="st48" x1="254.6" y1="364.99" x2="254.6" y2="364.99"/>
						</g>
					</g>
				</g>
				<g>
					<g>
						<g>
							<line class="st48" x1="195.84" y1="381.46" x2="195.84" y2="381.46"/>
							<line class="st49" x1="203.37" y1="374.05" x2="229.73" y2="348.12"/>
							<line class="st48" x1="233.49" y1="344.42" x2="233.49" y2="344.42"/>
						</g>
					</g>
				</g>
			</g>
			<g>
				<g>
					<g>
						<line class="st50" x1="117.22" y1="282.81" x2="117.22" y2="282.81"/>
						<line class="st51" x1="109.65" y1="290.18" x2="83.17" y2="315.99"/>
						<line class="st50" x1="79.39" y1="319.68" x2="79.39" y2="319.68"/>
					</g>
				</g>
			</g>
			<path class="st17" d="M152.61,62.57l33.04-8.63c1.11-0.29,1.48-1.69,0.66-2.49l-24.18-23.58c-0.81-0.79-2.16-0.42-2.46,0.67
				l-8.85,32.21C150.51,61.84,151.51,62.85,152.61,62.57z"/>
			<ellipse class="st52" cx="32.91" cy="93.47" rx="19.62" ry="19.12"/>
		</g>
	</g>
</g>
</svg>
