<?xml version="1.0" encoding="utf-8"?>
<!-- Generator: Adobe Illustrator 25.2.0, SVG Export Plug-In . SVG Version: 6.00 Build 0)  -->
<svg version="1.1" id="Calque_1" xmlns="http://www.w3.org/2000/svg" xmlns:xlink="http://www.w3.org/1999/xlink" x="0px" y="0px"
	 viewBox="0 0 286.84 413.04" style="enable-background:new 0 0 286.84 413.04;" xml:space="preserve">
<style type="text/css">
	.st0{fill:#6DC5CB;}
	.st1{fill:#F6B1B5;}
	.st2{fill:#0097DA;}
	.st3{clip-path:url(#SVGID_2_);}
	.st4{fill:none;stroke:#0097DA;stroke-width:2.0892;stroke-miterlimit:10;}
	.st5{fill:none;stroke:#0097DA;stroke-width:3.1338;stroke-miterlimit:10;}
	.st6{fill:none;stroke:#352E39;stroke-width:4.1784;stroke-linecap:round;stroke-miterlimit:10;}
	.st7{fill:none;stroke:#352E39;stroke-width:4.1784;stroke-linecap:round;stroke-miterlimit:10;stroke-dasharray:0,11.1683;}
	.st8{fill:none;stroke:#352E39;stroke-width:5.223;stroke-linecap:round;stroke-miterlimit:10;}
	.st9{fill:none;stroke:#352E39;stroke-width:5.223;stroke-linecap:round;stroke-miterlimit:10;stroke-dasharray:0,13.1324;}
	.st10{fill:none;stroke:#F6B1B5;stroke-width:4.1784;stroke-linecap:round;stroke-miterlimit:10;}
	.st11{fill:none;stroke:#FFFFFF;stroke-width:2.0892;stroke-miterlimit:10;}
	.st12{fill:none;stroke:#EEBC2E;stroke-width:3.1338;stroke-miterlimit:10;}
	.st13{fill:none;stroke:#FFFFFF;stroke-width:3.1338;stroke-miterlimit:10;}
	.st14{fill:none;stroke:#F6B1B5;stroke-width:4.1784;stroke-miterlimit:10;}
	.st15{fill:none;stroke:#FFFFFF;stroke-width:3.1338;stroke-linejoin:round;stroke-miterlimit:10;}
	.st16{fill:none;stroke:#FFFFFF;stroke-width:4.1784;stroke-miterlimit:10;}
	.st17{fill:#EEBC2E;}
	.st18{fill:#FFFFFF;}
	.st19{fill:#C8BE9D;}
	.st20{fill:#F1893D;}
	.st21{clip-path:url(#SVGID_4_);}
	.st22{fill:none;stroke:#F1893D;stroke-width:6.2676;stroke-linecap:round;stroke-miterlimit:10;}
	.st23{fill:none;stroke:#F1893D;stroke-width:6.2676;stroke-linecap:round;stroke-miterlimit:10;stroke-dasharray:0,11.1865;}
	.st24{fill:none;stroke:#EEBC2E;stroke-width:5.0087;stroke-miterlimit:10;}
	.st25{fill:none;stroke:#FFFFFF;stroke-width:5.1631;stroke-miterlimit:10;}
	.st26{fill:none;stroke:#0097DA;stroke-width:4.3899;stroke-linecap:round;stroke-miterlimit:10;}
	.st27{fill:none;stroke:#0097DA;stroke-width:4.3899;stroke-linecap:round;stroke-miterlimit:10;stroke-dasharray:0,12.3904;}
	.st28{fill:none;stroke:#FFFFFF;stroke-width:4.2271;stroke-miterlimit:10;}
	.st29{fill:none;stroke:#352E39;stroke-width:3.1338;stroke-miterlimit:10;}
	.st30{fill:none;stroke:#352E39;stroke-width:2.6115;stroke-miterlimit:10;}
	.st31{fill:none;stroke:#35313B;stroke-width:4.1784;stroke-miterlimit:10;}
	.st32{fill:none;stroke:#352E39;stroke-width:4.1784;stroke-miterlimit:10;}
	.st33{fill:none;stroke:#00A9B9;stroke-width:4.1784;stroke-linecap:round;stroke-miterlimit:10;}
	.st34{fill:none;stroke:#00A9B9;stroke-width:2;stroke-miterlimit:10;}
	.st35{fill:#C1E5F8;}
	.st36{fill:#00A9B9;}
	.st37{clip-path:url(#SVGID_6_);}
	.st38{fill:none;stroke:#F6B1B5;stroke-width:2.6115;stroke-miterlimit:10;}
	.st39{fill:none;stroke:#FFFFFF;stroke-width:4.7007;stroke-linecap:round;stroke-miterlimit:10;}
	.st40{fill:none;stroke:#FFFFFF;stroke-width:4.7007;stroke-linecap:round;stroke-miterlimit:10;stroke-dasharray:0,8.9829;}
	.st41{fill:none;stroke:#35313B;stroke-width:3.1338;stroke-linejoin:round;stroke-miterlimit:10;}
	.st42{fill:none;stroke:#0097DA;stroke-width:4.1784;stroke-linecap:round;stroke-miterlimit:10;}
	.st43{fill:#352E39;}
	.st44{fill:none;stroke:#00A9B9;stroke-width:4.1784;stroke-miterlimit:10;}
	.st45{fill:none;stroke:#F1893D;stroke-width:4.2271;stroke-miterlimit:10;}
	.st46{fill:none;stroke:#35313B;stroke-width:3.1338;stroke-miterlimit:10;}
	.st47{fill:none;stroke:#F1893D;stroke-width:3.1338;stroke-miterlimit:10;}
	.st48{fill:none;stroke:#EEBC2E;stroke-width:5;stroke-linecap:round;stroke-miterlimit:10;}
	.st49{fill:none;stroke:#EEBC2E;stroke-width:5;stroke-linecap:round;stroke-miterlimit:10;stroke-dasharray:0,9.9598;}
	.st50{fill:none;stroke:#EEBC2E;stroke-width:5;stroke-linecap:round;stroke-miterlimit:10;stroke-dasharray:0,9.9597;}
	.st51{fill:none;stroke:#35313B;stroke-width:5.223;stroke-linecap:round;stroke-miterlimit:10;}
	.st52{fill:none;stroke:#35313B;stroke-width:5.223;stroke-linecap:round;stroke-miterlimit:10;stroke-dasharray:0,9.9574;}
	.st53{fill:none;stroke:#FFFFFF;stroke-width:4;stroke-miterlimit:10;}
</style>
<g>
	<g>
		<rect class="st0" width="286.84" height="413.04"/>
		<g>
			<path class="st1" d="M152.87,139.03c-5.88,10.46-17.97,19.08-29.48,15.55c-11.34-3.49-16.29-16.36-20.42-27.47
				c-4.13-11.09-11.24-23.62-23.1-24.26c-11.78-0.64-20.26,10.87-31.05,15.62c-16.59,7.3-36.7-3.17-46.27-18.54
				c-0.91-1.48-1.77-2.98-2.54-4.53V0h158.86c-4.1,9.69-6.97,19.75-7.75,30.3c-1.38,18.39,3.74,36.55,6.84,54.73
				C161.05,103.21,161.91,122.95,152.87,139.03z"/>
			<path class="st2" d="M286.83,0v309.58c-5.16-5.92-10.86-11.4-16.71-16.39c-20.83-17.78-44.9-32.76-60.09-55.52
				c-14.78-22.13-19.57-50.63-12.85-76.35c3.71-14.22,10.68-27.36,15.73-41.17c5.04-13.82,8.12-29.11,3.77-43.15
				c-5.24-16.93-20.56-29.72-24.23-47.05c-2.14-10.18,0-20.27,4.07-29.94H286.83z"/>
			<path class="st2" d="M242.42,413.04H0.01V245.95c8.86,10.43,22.06,17.32,35.81,17.39c20.72,0.12,43.08-12.88,60.79-2.15
				c8.75,5.29,13.65,15.43,15.05,25.55c1.41,10.11-0.19,20.36-1.74,30.46c-1.5,9.76-2.75,20.57,2.71,28.82
				c7.86,11.94,25.5,12.36,39.14,8c13.65-4.35,26.63-12.15,40.95-12.19c24.73-0.07,43.93,23.71,48.55,47.92
				C242.75,397.42,243.11,405.28,242.42,413.04z"/>
		</g>
	</g>
	<g>
		<defs>
			<rect id="SVGID_1_" y="0" width="286.84" height="413.04"/>
		</defs>
		<clipPath id="SVGID_2_">
			<use xlink:href="#SVGID_1_"  style="overflow:visible;"/>
		</clipPath>
		<g class="st3">
			<g>
				<line class="st4" x1="35.24" y1="19.28" x2="41.82" y2="19.28"/>
				<line class="st4" x1="54.61" y1="38.74" x2="61.19" y2="38.74"/>
				<line class="st4" x1="97.08" y1="87.56" x2="103.65" y2="87.56"/>
				<line class="st4" x1="84.38" y1="70.15" x2="79.15" y2="74.83"/>
				<line class="st4" x1="103.65" y1="62.96" x2="110.23" y2="62.96"/>
				<line class="st4" x1="63.88" y1="72.49" x2="70.45" y2="72.49"/>
				<line class="st4" x1="64.65" y1="90.62" x2="66.1" y2="83.09"/>
				<line class="st4" x1="62.05" y1="51.19" x2="65.71" y2="57.61"/>
				<line class="st4" x1="48.85" y1="15.8" x2="51.69" y2="22.76"/>
				<line class="st4" x1="53.85" y1="79.87" x2="48.27" y2="83.96"/>
				<line class="st4" x1="78.15" y1="49.08" x2="75.52" y2="56.16"/>
				<line class="st4" x1="62.09" y1="99.53" x2="56.25" y2="95.97"/>
				<line class="st4" x1="103.93" y1="37.02" x2="101.12" y2="44"/>
				<line class="st4" x1="40.23" y1="70.29" x2="43.24" y2="63.43"/>
				<line class="st4" x1="108.83" y1="34.99" x2="111.2" y2="27.79"/>
				<line class="st4" x1="96.81" y1="30.11" x2="93.07" y2="23.75"/>
				<line class="st4" x1="87.63" y1="38.26" x2="81.13" y2="37.11"/>
				<line class="st4" x1="124.26" y1="28.59" x2="122.11" y2="35.89"/>
				<line class="st4" x1="129.65" y1="12.32" x2="127.51" y2="19.62"/>
				<line class="st4" x1="130" y1="42.82" x2="127.31" y2="49.87"/>
				<line class="st4" x1="116.1" y1="16.06" x2="110.5" y2="20.12"/>
				<line class="st4" x1="113.22" y1="44.22" x2="116.06" y2="51.19"/>
				<line class="st4" x1="40.31" y1="87.56" x2="43.15" y2="94.53"/>
				<line class="st4" x1="125.82" y1="59.48" x2="128.66" y2="66.44"/>
				<line class="st4" x1="128.58" y1="78.43" x2="131.42" y2="85.4"/>
				<line class="st4" x1="121.9" y1="125.48" x2="117.85" y2="119.39"/>
				<line class="st4" x1="128.58" y1="101.29" x2="131.42" y2="108.26"/>
				<line class="st4" x1="48.22" y1="49.13" x2="51.06" y2="56.09"/>
				<line class="st4" x1="33.89" y1="51.95" x2="40.33" y2="50.43"/>
				<line class="st4" x1="69.33" y1="18.09" x2="63.35" y2="21.29"/>
				<line class="st4" x1="78.59" y1="21.29" x2="83.08" y2="26.93"/>
				<line class="st4" x1="68.21" y1="34.87" x2="72.7" y2="40.51"/>
				<line class="st4" x1="89.13" y1="15.97" x2="95.69" y2="15.62"/>
				<line class="st4" x1="110.02" y1="78.6" x2="116.58" y2="78.26"/>
				<line class="st4" x1="118.62" y1="90.13" x2="125.18" y2="89.79"/>
				<line class="st4" x1="99.24" y1="100.63" x2="105.81" y2="100.28"/>
				<line class="st4" x1="79.84" y1="89.93" x2="85.03" y2="85.19"/>
				<line class="st4" x1="111.04" y1="109.7" x2="115.56" y2="104.09"/>
				<line class="st4" x1="94.99" y1="52.62" x2="89.21" y2="59.67"/>
				<line class="st4" x1="96.06" y1="67.95" x2="93.83" y2="75.22"/>
				<line class="st4" x1="41.73" y1="31.39" x2="44.57" y2="38.35"/>
			</g>
			<g>
				<line class="st5" x1="28.21" y1="110.33" x2="46.01" y2="110.33"/>
				<line class="st5" x1="28.21" y1="118" x2="46.01" y2="118"/>
				<line class="st5" x1="28.21" y1="125.68" x2="46.01" y2="125.68"/>
				<line class="st5" x1="28.21" y1="133.36" x2="46.01" y2="133.36"/>
				<line class="st5" x1="28.21" y1="141.04" x2="46.01" y2="141.04"/>
				<line class="st5" x1="28.21" y1="148.72" x2="46.01" y2="148.72"/>
				<line class="st5" x1="28.21" y1="156.39" x2="46.01" y2="156.39"/>
				<line class="st5" x1="28.21" y1="164.07" x2="46.01" y2="164.07"/>
				<line class="st5" x1="28.21" y1="171.75" x2="46.01" y2="171.75"/>
			</g>
			<g>
				<g>
					<g>
						<line class="st6" x1="134.6" y1="245.58" x2="134.6" y2="245.58"/>
						<line class="st7" x1="123.43" y1="245.58" x2="62.01" y2="245.58"/>
						<line class="st6" x1="56.42" y1="245.58" x2="56.42" y2="245.58"/>
					</g>
				</g>
				<g>
					<g>
						<line class="st6" x1="134.6" y1="257.02" x2="134.6" y2="257.02"/>
						<line class="st7" x1="123.43" y1="257.02" x2="62.01" y2="257.02"/>
						<line class="st6" x1="56.42" y1="257.02" x2="56.42" y2="257.02"/>
					</g>
				</g>
				<g>
					<g>
						<line class="st6" x1="134.6" y1="279.91" x2="134.6" y2="279.91"/>
						<line class="st7" x1="123.43" y1="279.91" x2="62.01" y2="279.91"/>
						<line class="st6" x1="56.42" y1="279.91" x2="56.42" y2="279.91"/>
					</g>
				</g>
				<g>
					<g>
						<line class="st6" x1="134.6" y1="268.47" x2="134.6" y2="268.47"/>
						<line class="st7" x1="123.43" y1="268.47" x2="62.01" y2="268.47"/>
						<line class="st6" x1="56.42" y1="268.47" x2="56.42" y2="268.47"/>
					</g>
				</g>
			</g>
			<g>
				<g>
					<g>
						<line class="st8" x1="219.65" y1="171.04" x2="219.65" y2="171.04"/>
						<line class="st9" x1="211.14" y1="161.04" x2="198.37" y2="146.04"/>
						<line class="st8" x1="194.12" y1="141.04" x2="194.12" y2="141.04"/>
					</g>
				</g>
			</g>
			<g>
				<path class="st10" d="M43.8,311.52c6.54,0,6.54,6.27,13.08,6.27c6.54,0,6.54-6.27,13.09-6.27c6.55,0,6.55,6.27,13.09,6.27
					c6.54,0,6.54-6.27,13.09-6.27c6.55,0,6.55,6.27,13.1,6.27c6.55,0,6.55-6.27,13.1-6.27"/>
			</g>
			<g>
				<line class="st11" x1="127.46" y1="362.01" x2="243.68" y2="225.44"/>
				<line class="st11" x1="132.08" y1="367.44" x2="248.3" y2="230.87"/>
				<line class="st11" x1="136.7" y1="372.87" x2="252.92" y2="236.3"/>
				<line class="st11" x1="141.32" y1="378.3" x2="257.54" y2="241.73"/>
				<line class="st11" x1="145.94" y1="383.73" x2="262.16" y2="247.16"/>
				<line class="st11" x1="150.56" y1="389.16" x2="266.78" y2="252.59"/>
				<line class="st11" x1="155.18" y1="394.58" x2="271.4" y2="258.02"/>
				<line class="st11" x1="159.8" y1="400.01" x2="276.02" y2="263.45"/>
				<line class="st11" x1="164.42" y1="405.44" x2="280.64" y2="268.88"/>
			</g>
			<g>
				<line class="st12" x1="171.19" y1="66.44" x2="171.19" y2="8.24"/>
				<line class="st12" x1="177.72" y1="66.44" x2="177.72" y2="8.24"/>
				<line class="st12" x1="184.26" y1="66.44" x2="184.26" y2="8.24"/>
				<line class="st12" x1="190.79" y1="66.44" x2="190.79" y2="8.24"/>
				<line class="st12" x1="197.32" y1="66.44" x2="197.32" y2="8.24"/>
				<line class="st12" x1="203.86" y1="66.44" x2="203.86" y2="8.24"/>
				<line class="st12" x1="210.39" y1="66.44" x2="210.39" y2="8.24"/>
				<line class="st12" x1="216.92" y1="66.44" x2="216.92" y2="8.24"/>
				<line class="st12" x1="223.46" y1="66.44" x2="223.46" y2="8.24"/>
			</g>
			<ellipse class="st13" cx="174.49" cy="238.59" rx="13.24" ry="15.56"/>
			<path class="st14" d="M171.31,125.48c0,8.59-5.93,15.56-13.24,15.56c-7.31,0-13.24-6.97-13.24-15.56"/>
			<path class="st10" d="M93.07,227.65c-5.17,6.08-13.56,6.08-18.73,0c-5.17-6.08-5.17-15.93,0-22.01"/>
			<g>
				<polyline class="st15" points="131.42,91.39 136.74,97.66 142.07,91.39 147.4,97.66 152.72,91.39 158.05,97.66 163.38,91.39 
					168.71,97.66 174.04,91.39 179.37,97.66 184.71,91.39 				"/>
			</g>
			<ellipse class="st16" cx="43.92" cy="108.26" rx="35.23" ry="41.4"/>
			<polygon class="st17" points="52.13,176.23 38.16,204.66 66.1,204.66 			"/>
			<polygon class="st1" points="171.17,271.7 157.67,275.95 167.55,287.56 			"/>
			<polygon class="st18" points="123.78,51.07 145.42,44.25 129.58,25.64 			"/>
			<polygon class="st1" points="191.33,109.7 219.65,128.91 219.65,90.49 			"/>
		</g>
	</g>
</g>
</svg>
